<?xml version="1.0" encoding="UTF-8"?>
<svg id="uuid-9ddcbde8-49ae-4914-b150-c6f46175caff" data-name="Ńëîé 1" xmlns="http://www.w3.org/2000/svg" viewBox="0 0 6500 3000">
  <defs>
    <style>
      .uuid-246d57c5-1824-4070-8b44-f83f292db0cb, .uuid-044a379c-50d5-40ae-b698-6d08cedacbc8, .uuid-3bf14623-202a-483d-9d8d-f23828e5c4ce, .uuid-ae285837-7dc8-4f9f-8ba4-083be8d1bba0, .uuid-32e15f92-a3e2-4a03-9926-023197312531, .uuid-5e5175b3-e16c-4723-9014-a3e3bf00a419, .uuid-01c65625-1425-4f2d-90e2-18ee3186cd1c {
        opacity: .8;
      }

      .uuid-044a379c-50d5-40ae-b698-6d08cedacbc8 {
        fill: #329901;
      }

      .uuid-3bf14623-202a-483d-9d8d-f23828e5c4ce {
        fill: #ed5500;
        fill-rule: evenodd;
      }

      .uuid-ae285837-7dc8-4f9f-8ba4-083be8d1bba0 {
        fill: #53aaba;
      }

      .uuid-32e15f92-a3e2-4a03-9926-023197312531 {
        fill: #cc1024;
      }

      .uuid-bc08e917-bfb9-4ca5-a851-4807e74d3768 {
        fill: #0036a8;
      }

      .uuid-5e5175b3-e16c-4723-9014-a3e3bf00a419 {
        fill: #fed116;
      }

      .uuid-01c65625-1425-4f2d-90e2-18ee3186cd1c {
        fill: #23558a;
      }
    </style>
  </defs>
  <path class="uuid-ae285837-7dc8-4f9f-8ba4-083be8d1bba0" d="M2082.31,1254.21c-2.36-3.35-10.22-1.65-15.36-.37-24.72,6.19-46.59,17.97-46.59,17.97-4.89,2.45-7.23,1.22-8.34-.61-1.18-1.94-.81-4.46.73-6.13,19.52-21.06,34.82-46.13,40.21-55.41,1.83-3.15,2.65-6.81,2.18-10.42-.97-7.58-6.24-6.85-10.74-4.71-3.64,1.73-6.68,4.5-8.9,7.86-10.38,15.67-30.71,35.62-30.71,35.62,5.45-14.54,18.03-38.27,22.45-46.48,1.48-2.75,2.48-5.75,2.85-8.86,1.01-8.55-3.29-10.23-7.69-9.86-4.49.38-8.5,2.94-10.94,6.72-9.44,14.62-20.9,28.67-20.9,28.67-11.57,12.46-20.46,37.37-20.46,37.37,3.82-21.9,11.72-44.06,14.99-52.71,1.25-3.31,1.07-7.04-.68-10.12-3.18-5.58-8.05-3.61-11.51-1.05-2.18,1.61-4.02,3.64-5.51,5.9-21.42,32.43-25.99,60.44-26.57,64.58-.06.44-.12.88-.21,1.33-1.58,8.31-7.42,18.33-7.42,18.33-15.57-24.91-35.59-19.13-35.59-19.13-11.23,2.3-7.55,10.39-3.55,15.8,1.97,2.67,4.54,4.82,7.4,6.5,10.21,6.01,4.16,17.73,4.16,17.73-37.95-30.6-70.07-50.49-87.46-60.46-6.34-3.63-12.97-6.69-19.74-9.41-10.25-4.11-17.93-12.01-20.69-15.13-1.6-1.81-3.24-3.59-4.88-5.37-26.38-28.48-48.9-54.14-63.24-70.75-10.07-11.67-17.93-25.08-23.07-39.61-35.86-101.49-91.19-101.61-112.7-97.26-14,2.83-28.16,4.84-42.37,6.28-37.43,3.79-67.85,5.79-84.65,6.73-9,.5-17.17-5.14-19.96-13.71-6.17-18.9-7.89-37.17-7.89-37.17,6.79-1.87,8.16-5.35,7.93-8.22-.38-4.74-.11-9.52,1.17-14.11,14.26-51.13-9.99-47.95-9.99-47.95,11.86-101.05-57.54-117.95-68.77-120.02-1.37-.25-2.74-.51-4.11-.79-41.98-8.55-61.32,1.12-80.58,11.58-14.28,7.76-26.29,19.04-35.2,32.63-9.21,14.04-19.08,21.44-19.08,21.44-40.04,13.79-24.7,51.02-24.7,51.02-30.48,5.2-22.45,33.5-22.45,33.5-3.56,20.46-11.57,28.02-11.57,28.02-12.9-.44-16.9,13.35-16.9,13.35-98.75,75.62-85.41,105.87-85.41,105.87,12.01-32.03,29.8-35.59,29.8-35.59-41.81,67.62-28.47,85.85-28.47,85.85,1.33-29.8,32.92-50.27,32.92-50.27-14.23,73.84,8.9,79.63,8.9,79.63-18.68-53.83,12.9-106.32,12.9-106.32-7.12,125.89,16.9,108.99,16.9,108.99-17.79-6.67-5.34-51.16-5.34-51.16,26.25,32.03,52.49,10.23,52.49,10.23-101.42,12.01-28.02-138.79-28.02-138.79,9.79-.44,16.46-11.12,16.46-11.12,18.68-1.33,24.91-16.46,24.91-16.46,15.57-.89,24.02-14.23,24.02-14.23,21.8-3.56,25.8-22.24,25.8-22.24,14.23,141.46,76.51,173.49,76.51,173.49-65.39,55.6-132.12,136.57-132.12,136.57-28.91,78.29,13.35,149.02,13.35,149.02,21.8,61.39,10.23,135.23,10.23,135.23-26.69,11.12-60.05,16.9-60.05,16.9.44-5.34-4-8.9-4-8.9-24.47-8.01-56.05-17.79-56.05-17.79-27.58-7.56-33.81,7.56-33.81,7.56-51.16,6.23-82.3,25.8-82.3,25.8.89,15.12-2.22,28.02-2.22,28.02l-92.97,45.5c-40.83,19.98-84.49,33.62-129.49,40.06-70.55,10.1-132.53,6.52-132.53,6.52-101.4-10.03-161.39,8.76-189.94,20.73-8.18,3.43-14.74,6.7-18.42,8.6-23.66,12.2-83.11,42.84-103.36,103.36-3.61,10.79-7.93,28.39-6.67,51.92,1.18,14.44,5.16,38.24,20.11,62.23,30.35,48.72,82.58,63.68,102.55,66.17,160.24,20.01,242.78-83.32,270.79-128.53,19.6-31.63,42.52-61.1,68.57-87.68,14.6-14.89,28.95-28.2,42.07-39.65,30.91-26.98,65.33-49.64,102.31-67.41l52.73-25.34c10.23,29.8,21.8,21.8,21.8,21.8,6.1-.92,10.74-11.66,13.05-18.32,1.04-3,3.98-4.89,7.15-4.67,17.7,1.25,22.51-5.04,22.51-5.04,15.57,11.57,29.36,2.67,29.36,2.67,11.34,2,16.93-2.25,19.02-4.5,1.18-1.28,2.4-2.52,3.64-3.75,5.96-5.95,12.36-14.61,16.39-20.37,2.46-3.53,6.77-5.29,10.99-4.48,9.35,1.79,17.54,1.9,23.26,1.59,6.14-.33,12.25.82,17.86,3.32,72.08,32.15,137.93,41.55,137.93,41.55-39.59,53.38-94.75,101.42-94.75,101.42-6.67,8.9-5.34,14.23-5.34,14.23-3.91.9-6.66,4.49-6.42,8.5.3,4.99,2.42,6.63,2.42,6.63,4.46,4.46,5.08,8.92,4.67,12.14-.52,4.07.45,8.2,2.95,11.45,10.09,13.15,25.74,24.9,25.74,24.9-41.58,60.69-83.66,184.55-101.86,241.88-5.37,16.91-12.31,33.29-20.8,48.87-3.62,6.65-6.56,12.95-8.91,18.55-9.39,22.4-26.73,34.67-26.73,34.67-8.78,9.6-13.59,13.38-19.06,22.97-5.15,9.03-7.13,16.64-8.93,23.51-4.51,17.22-9.09,34.51-14.34,54.39-16.38,44.47-25.73,86.42-29.36,104.52-1.2,5.97-4.43,11.34-9.17,15.15-29.18,23.48-33.04,34.81-32.91,39.32.12,4.16-.2,8.32-1.31,12.33-3.69,13.34-9.92,20.37-12.84,23.07-1.86,1.72-3.61,3.55-5.29,5.45-51.27,58.01-57.84,103.83-55.46,130.21,1.34,14.88,13.09,26.68,27.94,28.26,41.06,4.38,60.74-5.2,64.06-7.04.57-.31,1.15-.62,1.72-.93,31.11-16.73,34.79-45.96,34.77-59.02-.02-10.45,1.26-20.87,4.12-30.92,7.82-27.49,21.72-38.8,24.4-40.77.58-.42,1.15-.84,1.72-1.28,39.6-30.47,31.44-65.35,24.82-80.99-2.48-5.85-1.97-12.56,1.33-17.99,9.95-16.37,21.38-31.89,30.8-43.85,8.58-10.89,17.95-21.12,27.87-30.81,14.08-13.75,24.59-29.55,31.41-41.47,6.96-12.17,15.78-23.18,25.93-32.85,37.63-35.84,63.22-81.37,73.3-101.1,11.87-23.21,24.75-45.89,38.65-67.94,7.41-11.76,14.67-22.82,21.15-32.49,12.23-18.25,26.39-35.09,41.98-50.56,33.47-33.21,58.09-85.64,63.42-97.52.71-1.59,2.16-2.75,3.88-3.06,12.74-2.36,24.34,1.51,24.34,1.51,16.63,5.1,25.2,4.34,29.6,2.3,2.44-1.14,5.29.45,5.69,3.11,4.22,28.27,16.09,57.97,25.79,78.76,8.41,18.01,13.35,37.41,14.82,57.23,2.09,28.11,7.74,51.8,12.53,67.72,4.55,15.11,5.52,31.07,2.81,46.61-9.87,56.68-7.53,91.54-3.6,111.2,4.36,21.78,7.02,43.86,7.65,66.06.68,23.67,1.79,45.53,2.45,57.49.31,5.54-1.21,11.03-4.36,15.59-16.93,24.54-9.76,58.87-9.76,58.87,3.53,19.99,3.75,35.89,3.5,44.39-.16,5.37,1.2,10.69,4.05,15.24,10.22,16.34,25.85,24.45,35.36,28.1,5.94,2.28,10.71,6.85,13.19,12.71,3.72,8.81,5.71,16.77,6.69,21.58,1.18,5.82,2.75,11.56,4.84,17.12,22.52,59.79,70.11,53.61,95.59,45.13,16.87-5.62,28.51-21.33,28.42-39.11-.2-39.02-39.95-80.65-39.95-80.65-23.73-23.43-39.55-55.8-47.19-73.92-2.99-7.1-5.01-14.59-5.87-22.25-.46-4.14-1.13-7.2-1.77-9.4-.82-2.81-3.4-4.73-6.32-4.75-1.97-.01-3.45-1.78-3.05-3.7,10.96-53.04,23.71-87.04,23.71-87.04,38.03-95.69,33.9-172.37,28.03-209.71-2.75-17.47-1.51-35.35,3.69-52.25,31.35-101.98,28.34-168.2,28.34-168.2,16.35.5,26.85-.69,33.6-2.36,7.14-1.78,12.16-8.18,12.31-15.53,1.25-58.66-12.01-92.14-23.27-109.85-7.72-12.14-13.11-25.63-15.41-39.83-1.8-11.11-5.61-21.11-9.13-28.55-3.58-7.57-2.69-16.51,2.32-23.22.11-.14.22-.29.32-.43,5.62-7.68,7.71-17.38,6.05-26.76-6.41-36.19-6.02-70.95-4.56-93.74,1.3-20.29.62-40.65-1.98-60.81-1.99-15.4-3.62-29.16-4.87-40.19-1.72-15.25-2.75-30.56-3.08-45.9-.79-37.37-4.58-66.24-7.29-82.51-1.55-9.32-2.24-18.76-2.19-28.21.28-49.25-21.09-89.36-21.09-89.36,21.87,28.74,56.46,73.94,75.12,98.3,7.04,9.19,13.53,18.78,19.5,28.69.91,1.52,1.8,2.94,2.66,4.28,5.67,8.85,13.84,15.85,23.48,20.04,52,22.62,111.1,31.71,138.22,34.9,8.27.97,16.49,2.33,24.6,4.19,32.21,7.37,46.81-7,50.17-11.02,1-1.2,2.65-3.15,3.69-4.31,10.58-11.89,18.44-19.38,18.44-19.38,9.88-10.84,16.05-19.08,19.62-24.34,2.98-4.38,7.29-7.7,12.32-9.38,25.04-8.36,43.31-17.97,50.91-22.26,3.35-1.89,5.85-5.05,6.74-8.8.22-.94.63-3.26-.5-4.86ZM640.65,1853.11l-1.94-3.24,9.53-4.46c-2.39,2.55-4.92,5.12-7.59,7.7ZM610.42,1878.01l-6.78-11.72,15.74-7.37,4.98,8.5c-3.36,2.71-6.9,5.42-10.62,8.13-1.11.81-2.22,1.64-3.32,2.47ZM336.63,1890.8l18.27-8.61,6.33,10.83-15.76,7.42c-3.1-3.04-6.05-6.25-8.84-9.64ZM329.95,1881.93c-.34-.49-.67-.99-1-1.49l19.46-9.37,6.01,10.29-18.41,8.68c-2.12-2.61-4.14-5.31-6.05-8.11ZM308.75,1811.85l3.93-1.89,7.23,12.37-10.44,4.97c-.57-5.15-.81-10.31-.72-15.45ZM407.3,1711.65l7.15,12.24-14.63,6.94-7.14-12.22,14.62-6.97ZM392.2,1717.8l-9.65-16.51c3.89-2.5,8.52-5.31,13.86-8.29l10.42,17.84-14.62,6.97ZM526.46,1654.86c5.26-.31,11.25-.57,17.62-.66l3.79,6.38-17.63,8.37-7.41-12.36,3.63-1.73ZM522.34,1655.77l-.37-.62c.63-.04,1.28-.09,1.94-.13l-1.57.75ZM649.96,1843.55l-11.74,5.5-7.86-13.11,17.05-8,6.57,11.05c-1.29,1.51-2.63,3.03-4.02,4.56ZM380.91,1924.79l-3.56-6.09,18.49-8.61,7.66,13.02-12.33,5.85c-3.48-1.24-6.91-2.63-10.26-4.17ZM594.54,1658.46c.39.09.79.18,1.18.27l6.45,11.13-19.14,9.2-7.38-12.52,17.74-8.34c.39.09.78.17,1.16.27ZM582.16,1679.47l-17.07,8.2-7.52-12.64,17.2-8.09,7.39,12.53ZM629.91,1725.31l4.15,7.09-15.24,7.34-6.51-11.04,16.66-8.06c-.2,1.56.09,3.2.95,4.67ZM617.96,1740.16l-16.83,8.11-6.54-11,16.86-8.15,6.51,11.04ZM473.24,1856.41l-6.91-11.82,14.6-6.87,6.94,11.89-14.63,6.8ZM488.36,1850.44l7.14,12.22-14.62,6.8-7.15-12.23,14.63-6.8ZM475.72,1793.7l-15.12,7.31-6.09-10.42,15.1-7.24,6.11,10.35ZM470.47,1782.94l16.3-7.81,5.97,10.34-16.16,7.82-6.11-10.34ZM459.74,1801.43l-14.53,7.03-6.12-10.47,14.56-6.98,6.09,10.43ZM444.35,1808.88l-14.78,7.15-6.03-10.59,14.68-7.04,6.13,10.48ZM444.83,1809.7l6.32,10.81-14.93,7.19-6.18-10.85,14.79-7.15ZM445.69,1809.29l14.53-7.03,6.33,10.84-14.54,7-6.32-10.81ZM461.08,1801.84l15.13-7.32,6.4,10.84-15.2,7.32-6.33-10.84ZM477.07,1794.11l16.15-7.81,6.3,10.91-16.05,7.73-6.4-10.84ZM515.11,1789.7l-14.73,7.1-6.3-10.92,14.7-7.11,6.33,10.93ZM509.64,1778.36l16.2-7.84,6.38,10.94-16.25,7.83-6.33-10.93ZM500,1798.04l6.67,11.54-16,7.54-6.71-11.36,16.04-7.73ZM500.86,1797.63l14.73-7.1,6.75,11.66-14.82,6.98-6.67-11.55ZM516.45,1790.12l16.25-7.83,6.87,11.78-16.36,7.71-6.76-11.67ZM533.56,1781.87l15.76-7.59,6.9,11.94-15.79,7.45-6.87-11.79ZM533.08,1781.05l-6.38-10.94,15.79-7.64,6.35,10.99-15.76,7.59ZM526.22,1769.28l-5.95-10.2,15.86-7.6,5.88,10.17-15.79,7.64ZM525.36,1769.7l-16.2,7.84-5.95-10.28,16.2-7.77,5.95,10.21ZM508.3,1777.95l-14.7,7.11-5.97-10.34,14.71-7.05,5.96,10.28ZM487.15,1773.89l-6.35-11,14.69-7.05,6.38,11.01-14.71,7.05ZM486.29,1774.31l-16.31,7.82-6.46-10.94,16.41-7.88,6.35,11ZM469.12,1782.54l-15.09,7.23-6.4-10.95,15.03-7.22,6.46,10.94ZM453.17,1790.18l-14.56,6.98-6.4-10.94,14.56-6.99,6.4,10.95ZM437.74,1797.58l-14.67,7.03-6.26-10.99,14.54-6.98,6.4,10.94ZM422.2,1805.02l-16.92,8.11-6.39-10.91,17.06-8.19,6.26,10.99ZM422.68,1805.85l6.03,10.59-16.74,8.1-6.2-10.58,16.91-8.11ZM429.18,1817.27l6.18,10.85-16.61,8-6.3-10.76,16.73-8.09ZM435.83,1828.95l6.29,11.06-16.53,7.79-6.36-10.85,16.6-7.99ZM436.69,1828.54l14.94-7.2,6.5,11.12-15.15,7.14-6.3-11.06ZM452.5,1820.93l14.54-7,6.57,11.25-14.6,6.88-6.51-11.13ZM467.89,1813.51l15.2-7.32,6.7,11.35-15.33,7.23-6.57-11.25ZM490.28,1818.36l6.43,10.88-15.4,7.25-6.37-10.9,15.34-7.23ZM491.15,1817.95l15.99-7.54,6.32,10.94-15.88,7.48-6.43-10.88ZM508.01,1810l14.82-6.99,6.34,10.94-14.84,6.98-6.32-10.94ZM523.69,1802.61l16.36-7.71,6.38,10.94-16.4,7.72-6.34-10.95ZM540.91,1794.49l15.79-7.44,6.34,10.97-15.76,7.42-6.38-10.94ZM557.57,1786.64l15.25-7.19,6.41,10.95-15.32,7.21-6.34-10.97ZM557.09,1785.81l-6.91-11.94,15.1-7.28,7.05,12.03-15.25,7.19ZM549.7,1773.04l-6.35-10.99,15.02-7.27,6.43,10.98-15.1,7.27ZM542.87,1761.23l-5.88-10.16,14.99-7.18,5.91,10.08-15.02,7.26ZM536.51,1750.24l-6.38-11.03,14.91-7.16,6.45,11.01-14.98,7.18ZM535.65,1750.65l-15.86,7.6-6.41-11,15.89-7.63,6.38,11.03ZM518.93,1758.66l-16.2,7.76-6.38-11.01,16.16-7.76,6.41,11ZM495.87,1754.6l-6.78-11.7,16.16-7.69,6.78,11.63-16.16,7.76ZM495.01,1755.01l-14.69,7.05-6.79-11.76,14.7-7,6.78,11.7ZM479.46,1762.48l-16.42,7.88-6.95-11.76,16.58-7.89,6.79,11.76ZM462.17,1770.78l-15.02,7.21-6.92-11.85,14.99-7.13,6.95,11.77ZM446.29,1778.4l-14.56,6.99-6.96-11.9,14.6-6.95,6.92,11.85ZM430.86,1785.81l-14.53,6.98-6.84-12.02,14.41-6.86,6.96,11.9ZM415.47,1793.2l-17.07,8.19-7.03-12,17.26-8.21,6.84,12.02ZM397.54,1801.81l-16.05,7.71-7.03-12.08,16.04-7.63,7.03,12.01ZM398.03,1802.63l6.39,10.91-16.09,7.71-6.35-10.92,16.05-7.71ZM404.9,1814.37l6.2,10.59-16.1,7.79-6.2-10.66,16.1-7.71ZM411.59,1825.78l6.3,10.76-16.15,7.78-6.26-10.75,16.1-7.79ZM418.37,1837.36l6.36,10.85-16.26,7.66-6.25-10.73,16.15-7.78ZM425.21,1849.03l6.37,10.86-16.3,7.67-6.33-10.87,16.26-7.67ZM426.08,1848.63l16.52-7.79,6.23,10.94-16.39,7.71-6.37-10.87ZM443.46,1840.43l15.16-7.14,6.37,10.89-15.29,7.2-6.23-10.94ZM459.48,1832.88l14.6-6.88,6.37,10.9-14.6,6.87-6.37-10.89ZM481.79,1837.31l15.4-7.25,7.05,11.93-15.51,7.21-6.95-11.89ZM498.06,1829.65l15.88-7.47,6.97,12.07-15.79,7.34-7.05-11.94ZM514.81,1821.77l14.84-6.98,7.03,12.13-14.89,6.93-6.97-12.07ZM530.51,1814.38l16.4-7.72,7.11,12.19-16.48,7.66-7.03-12.13ZM547.77,1806.26l15.75-7.42,7.11,12.29-15.75,7.32-7.11-12.2ZM564.39,1798.43l15.32-7.21,7.22,12.33-15.44,7.18-7.11-12.29ZM580.58,1790.81l16.85-7.93,7.4,12.35-17.03,7.92-7.23-12.33ZM580.1,1789.99l-6.41-10.95,16.72-7.88,6.54,10.9-16.84,7.93ZM573.2,1778.22l-7.05-12.04,16.51-7.95,7.26,12.11-16.71,7.88ZM565.66,1765.35l-6.43-10.98,16.37-7.92,6.56,10.95-16.5,7.95ZM558.75,1753.55l-5.91-10.08,16.29-7.81,5.98,9.98-16.36,7.91ZM552.36,1742.64l-6.45-11.01,16.16-7.76,6.57,10.97-16.28,7.8ZM545.42,1730.81l-6.74-11.5,16.06-7.64,6.83,11.39-16.15,7.75ZM544.56,1731.22l-14.91,7.16-6.7-11.59,14.87-7.07,6.74,11.51ZM528.79,1738.79l-15.9,7.63-6.78-11.63,15.97-7.6,6.71,11.59ZM505.64,1733.97l-7.6-13.04,15.98-7.68,7.59,13.12-15.97,7.6ZM504.77,1734.38l-16.16,7.69-7.53-12.99,16.09-7.73,7.6,13.03ZM487.75,1742.48l-14.7,7-7.48-12.95,14.66-7.04,7.53,12.99ZM472.18,1749.89l-16.58,7.89-7.58-12.82,16.68-8.01,7.48,12.94ZM454.74,1758.19l-14.99,7.13-7.47-12.8,14.89-7.15,7.57,12.82ZM438.88,1765.73l-14.6,6.95-7.45-12.74,14.58-7,7.47,12.8ZM423.42,1773.09l-14.4,6.85-7.27-12.76,14.22-6.83,7.45,12.74ZM408.15,1780.35l-17.27,8.22-7.39-12.62,17.4-8.36,7.26,12.76ZM390.02,1788.97l-16.04,7.63-7.32-12.58,15.97-7.67,7.39,12.61ZM373.12,1797.02l-16.3,7.75-7.42-12.45,16.4-7.88,7.32,12.57ZM373.6,1797.84l7.03,12.08-16.12,7.74-7.2-12.07,16.29-7.75ZM381.11,1810.75l6.35,10.92-16,7.67-6.47-10.85,16.11-7.74ZM387.94,1822.5l6.2,10.66-15.84,7.66-6.35-10.66,15.99-7.66ZM394.63,1833.98l6.25,10.75-15.73,7.58-6.36-10.67,15.83-7.66ZM401.36,1845.56l6.24,10.73-15.67,7.39-6.29-10.54,15.72-7.57ZM408.09,1857.11l6.33,10.87-15.55,7.32-6.44-10.81,15.66-7.38ZM414.89,1868.81l6.75,11.6-15.45,7.18-6.84-11.47,15.54-7.31ZM415.76,1868.4l16.3-7.67,6.83,11.66-16.38,7.62-6.75-11.6ZM432.93,1860.32l16.37-7.71,6.72,11.81-16.27,7.56-6.83-11.66ZM450.17,1852.2l15.3-7.2,6.91,11.82-15.48,7.2-6.73-11.81ZM472.86,1857.64l7.15,12.23-15.64,7.28-7-12.3,15.49-7.2ZM480.49,1870.69l7.29,12.46-15.74,7.46-7.2-12.64,15.65-7.28ZM481.36,1870.29l14.62-6.8,7.22,12.36-14.55,6.9-7.28-12.46ZM496.84,1863.08l15.58-7.25,7.22,12.22-15.58,7.39-7.22-12.35ZM496.36,1862.26l-7.14-12.22,15.51-7.21,7.2,12.19-15.57,7.25ZM505.6,1842.42l15.79-7.34,7.07,12.24-15.65,7.29-7.2-12.19ZM522.26,1834.67l14.89-6.93,7.08,12.22-14.91,6.94-7.07-12.24ZM538.02,1827.34l16.48-7.66,7.11,12.2-16.51,7.68-7.08-12.22ZM555.36,1819.28l15.75-7.32,7.07,12.22-15.7,7.31-7.11-12.2ZM571.98,1811.55l15.44-7.18,7.13,12.18-15.51,7.22-7.07-12.21ZM588.29,1803.97l17.04-7.92,7.26,12.11-17.16,7.99-7.13-12.17ZM606.2,1795.64l17.24-8.01,7.21,12.12-17.19,8-7.26-12.11ZM605.7,1794.82l-7.4-12.35,17.24-8.11,7.4,12.45-17.24,8.02ZM597.81,1781.65l-6.54-10.9,17.28-8.15,6.5,10.93-17.24,8.12ZM590.78,1769.93l-7.26-12.12,17.24-8.31,7.3,12.28-17.28,8.15ZM583.02,1756.99l-6.56-10.95,17.27-8.35,6.54,11-17.25,8.31ZM575.97,1745.22l-5.98-9.97,17.35-8.31,5.91,9.93-17.28,8.36ZM569.5,1734.43l-6.58-10.97,17.38-8.35,6.54,11-17.35,8.32ZM562.43,1722.64l-6.83-11.39,17.47-8.31,6.75,11.35-17.39,8.35ZM555.11,1710.43l-7.87-13.13,17.48-8.4,7.86,13.22-17.47,8.31ZM554.25,1710.84l-16.05,7.64-7.7-13.14,15.88-7.63,7.87,13.13ZM537.33,1718.89l-14.86,7.07-7.59-13.12,14.76-7.09,7.7,13.14ZM514.4,1712.01l-7.59-13.11,14.74-6.93,7.59,12.96-14.75,7.09ZM513.54,1712.43l-15.99,7.68-7.71-13.22,16.11-7.57,7.59,13.12ZM496.69,1720.52l-16.09,7.73-7.75-13.38,16.12-7.58,7.71,13.23ZM479.74,1728.66l-14.65,7.04-7.8-13.51,14.7-6.91,7.75,13.38ZM464.23,1736.11l-16.69,8.02-8.02-13.58,16.91-7.95,7.8,13.51ZM446.68,1744.54l-14.88,7.15-8.02-13.74,14.88-7,8.03,13.59ZM430.93,1752.11l-14.58,7-8.1-13.85,14.65-6.89,8.03,13.74ZM415.49,1759.52l-14.21,6.83-8-14.05,14.11-6.64,8.1,13.86ZM400.42,1766.76l-17.41,8.36-8.27-14.11,17.67-8.31,8.01,14.06ZM382.15,1775.54l-15.97,7.67-8.3-14.26,16-7.52,8.27,14.12ZM365.32,1783.62l-16.41,7.88-8.54-14.32,16.65-7.83,8.3,14.27ZM348.05,1791.92l-16.05,7.71-8.53-14.5,16.04-7.54,8.54,14.33ZM348.54,1792.74l7.42,12.44-16.17,7.69-7.31-12.43,16.06-7.71ZM356.45,1806.01l7.2,12.08-16.22,7.79-7.15-12.17,16.18-7.7ZM364.14,1818.9l6.47,10.85-16.3,7.81-6.39-10.87,16.23-7.79ZM371.09,1830.57l6.35,10.66-16.34,7.9-6.32-10.75,16.31-7.82ZM377.94,1842.06l6.36,10.67-16.43,7.92-6.28-10.67,16.35-7.91ZM384.78,1853.54l6.28,10.54-16.58,7.82-6.14-10.44,16.44-7.92ZM391.56,1864.9l6.44,10.81-16.66,7.84-6.37-10.83,16.59-7.82ZM398.49,1876.53l6.84,11.47-16.78,7.8-6.72-11.42,16.67-7.85ZM405.81,1888.82l7.27,12.2-16.86,7.85-7.2-12.24,16.79-7.81ZM406.68,1888.41l15.44-7.18,7.13,12.26-15.3,7.12-7.27-12.2ZM422.99,1880.83l16.39-7.62,7.17,12.23-16.42,7.64-7.13-12.26ZM440.24,1872.81l16.25-7.56,7,12.3-16.09,7.49-7.17-12.23ZM463.98,1878.38l7.2,12.65-15.85,7.52-7.43-12.68,16.08-7.49ZM471.65,1891.86l7.85,13.79-15.7,7.37-7.99-13.64,15.84-7.51ZM472.51,1891.45l15.75-7.47,8.06,13.78-15.95,7.48-7.86-13.8ZM489.12,1883.57l14.55-6.9,8.09,13.85-14.58,6.84-8.06-13.78ZM504.54,1876.26l15.59-7.39,8.2,13.88-15.7,7.36-8.09-13.85ZM520.99,1868.46l15.45-7.33,8.09,14.01-15.34,7.2-8.2-13.88ZM520.5,1867.64l-7.21-12.21,15.65-7.28,7.03,12.16-15.46,7.33ZM529.8,1847.74l14.91-6.94,6.98,12.05-14.87,7.05-7.02-12.16ZM545.58,1840.4l16.51-7.69,6.94,11.91-16.48,7.81-6.98-12.04ZM562.96,1832.31l15.7-7.31,6.84,11.82-15.6,7.4-6.94-11.91ZM579.52,1824.59l15.52-7.22,6.84,11.68-15.52,7.36-6.83-11.81ZM595.91,1816.97l17.17-7.99,6.89,11.49-17.23,8.17-6.84-11.67ZM613.95,1808.57l17.18-8,6.78,11.39-17.07,8.09-6.89-11.49ZM632,1800.17l16.75-7.8,6.66,11.29-16.64,7.89-6.77-11.39ZM631.51,1799.35l-7.21-12.12,16.81-7.82,7.16,12.14-16.76,7.8ZM623.81,1786.4l-7.41-12.45,16.81-7.92,7.4,12.55-16.81,7.82ZM615.92,1773.13l-6.5-10.93,16.85-7.95,6.46,10.96-16.82,7.92ZM608.93,1761.37l-7.31-12.28,16.83-8.11,7.34,12.44-16.86,7.95ZM594.1,1736.45l-5.9-9.93,16.93-8.11,5.83,9.89-16.86,8.15ZM587.71,1725.7l-6.54-11,16.97-8.15,6.51,11.03-16.93,8.12ZM580.68,1713.88l-6.75-11.35,17.05-8.11,6.67,11.31-16.97,8.15ZM573.44,1701.71l-7.86-13.22,17.07-8.2,7.85,13.3-17.05,8.11ZM564.23,1688.08l-17.48,8.4-7.65-12.76,17.61-8.28,7.52,12.64ZM545.88,1696.89l-15.87,7.62-7.59-12.95,15.81-7.43,7.65,12.77ZM521.94,1690.74l-7.7-13.14,15.63-7.42,7.87,13.13-15.8,7.43ZM521.08,1691.14l-14.74,6.93-7.59-13.12,14.63-6.94,7.7,13.14ZM505.47,1698.48l-16.11,7.58-7.6-13.05,16.12-7.65,7.59,13.12ZM481.28,1692.18l-7.2-12.36,16.15-7.7,7.17,12.4-16.13,7.65ZM480.41,1692.59l-16.05,7.62-7.15-12.35,16-7.63,7.2,12.36ZM480.9,1693.42l7.6,13.04-16.12,7.58-7.54-13.01,16.05-7.62ZM471.51,1714.45l-14.7,6.91-7.49-12.96,14.65-6.95,7.53,13ZM455.95,1721.77l-16.92,7.96-7.59-12.84,17.02-8.08,7.49,12.96ZM438.16,1730.13l-14.88,7-7.49-12.82,14.78-7.01,7.58,12.84ZM422.42,1737.54l-14.65,6.89-7.46-12.77,14.63-6.94,7.49,12.82ZM406.9,1744.84l-14.1,6.63-7.28-12.79,13.92-6.6,7.46,12.76ZM391.94,1751.87l-17.68,8.31-7.41-12.65,17.81-8.45,7.28,12.79ZM373.4,1760.59l-15.99,7.52-7.34-12.61,15.92-7.56,7.41,12.65ZM356.54,1768.52l-16.66,7.83-7.44-12.49,16.77-7.96,7.34,12.61ZM339.01,1776.76l-16.03,7.54-6.82-11.61c.17-.45.35-.9.52-1.35l14.89-7.07,7.44,12.48ZM322.12,1784.71l-10.89,5.12c1.13-5.42,2.63-10.75,4.51-15.97l6.38,10.85ZM310.99,1790.99l11.61-5.46,8.53,14.51-18.07,8.68-3.74-6.4c.38-3.8.94-7.58,1.68-11.32ZM331.62,1800.87l7.3,12.42-18.15,8.63-7.23-12.37,18.08-8.68ZM339.41,1814.11l7.16,12.17-18.14,8.71-7.16-12.25,18.15-8.63ZM347.05,1827.11l6.39,10.87-18.18,8.71-6.36-10.87,18.15-8.71ZM353.92,1838.8l6.32,10.75-18.18,8.79-6.33-10.83,18.19-8.72ZM360.73,1850.38l6.28,10.67-18.22,8.78-6.23-10.66,18.18-8.79ZM367.49,1861.88l6.13,10.43-18.34,8.65-6.02-10.3,18.23-8.78ZM374.1,1873.13l6.37,10.83-18.38,8.65-6.33-10.83,18.34-8.65ZM380.96,1884.78l6.72,11.42-18.46,8.58-6.64-11.35,18.38-8.65ZM388.16,1897.03l7.2,12.24-18.49,8.61-7.17-12.27,18.46-8.58ZM396.71,1909.69l16.87-7.85,7.67,12.86-16.88,8.01-7.65-13.02ZM414.45,1901.44l15.29-7.12,7.46,12.82-15.09,7.15-7.67-12.86ZM430.6,1893.91l16.42-7.64,7.43,12.69-16.4,7.78-7.46-12.82ZM454.94,1899.78l7.99,13.64-16.48,7.73-7.91-13.59,16.4-7.78ZM463.42,1914.25l7.65,13.06-16.53,7.74-7.6-13.07,16.48-7.73ZM464.28,1913.84l15.69-7.36,7.49,13.15-15.53,7.27-7.65-13.06ZM480.84,1906.07l15.96-7.49,7.65,13.09-16.12,7.55-7.49-13.15ZM497.67,1898.18l14.58-6.84,7.65,13.1-14.58,6.83-7.65-13.09ZM513.11,1890.94l15.7-7.36,7.73,13.08-15.78,7.39-7.65-13.1ZM529.68,1883.17l15.33-7.19,7.6,13.16-15.2,7.12-7.73-13.08ZM545.88,1875.57l14.92-7,7.62,13.16-14.95,7-7.6-13.16ZM545.4,1874.74l-8.09-14.01,14.87-7.05,8.15,14.07-14.92,7ZM553.03,1853.26l16.48-7.81,8.23,14.12-16.56,7.77-8.15-14.07ZM570.38,1845.04l15.59-7.39,8.22,14.21-15.58,7.31-8.23-14.12ZM586.84,1837.24l15.53-7.36,8.34,14.23-15.65,7.34-8.22-14.21ZM603.23,1829.46l17.24-8.17,8.53,14.24-17.43,8.17-8.34-14.24ZM629.49,1836.35l7.86,13.11-17.58,8.23-7.71-13.16,17.44-8.18ZM629.86,1835.12l-8.54-14.24,17.07-8.09,8.52,14.33-17.05,8ZM639.26,1812.38l16.64-7.89,8.51,14.43-16.62,7.8-8.53-14.34ZM656.76,1804.08l18.2-8.63,3.27,5.63c-2.11,4.83-4.65,9.83-7.69,14.96l-5.26,2.47-8.51-14.43ZM656.28,1803.25l-6.66-11.29,18.37-8.55,6.49,11.2-18.21,8.63ZM649.13,1791.14l-7.16-12.14,18.48-8.59,7.06,12.17-18.38,8.55ZM641.49,1778.18l-7.4-12.56,18.54-8.73,7.35,12.69-18.49,8.6ZM633.6,1764.8l-6.46-10.96,18.62-8.78,6.38,11.01-18.54,8.73ZM626.65,1753.02l-7.34-12.45,15.24-7.34.58.99c1.39,2.38,3.9,3.67,6.46,3.65l3.69,6.37-18.63,8.78ZM629.21,1719.47l-17.38,8.41-5.83-9.89,18.84-9.03,5.11,8.82c-.32.53-.57,1.1-.74,1.69ZM605.51,1717.17l-6.51-11.03,18.93-9.09,6.43,11.09-18.85,9.03ZM598.51,1705.31l-6.67-11.31,19.06-9.07,6.54,11.28-18.94,9.09ZM591.36,1693.18l-7.85-13.31,19.14-9.19,7.78,13.43-19.07,9.07ZM603.51,1670.27l13.88-6.67c5.58,1.64,12.26,4.16,19.29,8.02l-25.39,12.08-7.78-13.43ZM603.03,1669.44l-6.04-10.42c3.9.9,7.81,1.74,11.74,2.48,2.05.39,4.51.93,7.29,1.7l-12.98,6.24ZM575.16,1665.71l-6.43-10.9c7.95.55,15.84,1.51,23.12,3.05l-16.69,7.85ZM567.58,1654.73l6.71,11.38-17.2,8.09-7.86-13.21,13.73-6.51c1.54.07,3.08.16,4.62.25ZM556.22,1674.61l-17.62,8.29-7.87-13.13,17.63-8.37,7.86,13.21ZM529.38,1669.36l-15.62,7.41-7.26-12.4,15.47-7.37,7.41,12.36ZM512.89,1677.18l-14.63,6.94-7.18-12.41,14.54-6.93,7.26,12.39ZM490.61,1670.89l-6.1-10.55c5.42-1.13,11-2.15,16.74-3.03l3.9,6.65-14.54,6.93ZM489.75,1671.3l-16.16,7.7-8.19-14.05c5.81-1.59,11.86-3.07,18.13-4.4l6.22,10.75ZM472.73,1679.41l-16,7.63-9.56-16.5c5.51-1.87,11.27-3.66,17.28-5.32l8.28,14.2ZM455.87,1687.45l-14.62,6.97-10.32-17.87c4.85-1.95,9.96-3.86,15.32-5.7l9.62,16.6ZM456.35,1688.28l7.15,12.34-14.65,6.95-7.12-12.33,14.62-6.97ZM447.98,1707.98l-17.03,8.08-7.23-12.24,17.14-8.17,7.12,12.33ZM430.09,1716.47l-14.77,7.01-7.15-12.24,14.7-7,7.23,12.24ZM398.96,1731.25l-13.91,6.6-6.98-12.26,13.75-6.55,7.14,12.22ZM384.19,1738.26l-17.82,8.46-7.12-12.16,17.96-8.56,6.98,12.26ZM365.5,1747.12l-15.92,7.56-7.07-12.15,15.87-7.56,7.12,12.16ZM348.72,1755.09l-16.77,7.96-6.14-10.3c.66-1.08,1.33-2.15,2.02-3.22l13.82-6.59,7.07,12.15ZM328.85,1747.99c2.72-4.04,5.71-7.92,8.97-11.64l3.35,5.76-12.32,5.87ZM325.25,1753.68l5.83,9.78-13.9,6.6c2.25-5.64,4.95-11.11,8.07-16.38ZM309.16,1803.95l3.03,5.19-3.42,1.64c.06-2.28.19-4.56.39-6.83ZM320.39,1823.16l7.16,12.25-15.32,7.36c-1.19-4.79-2.07-9.62-2.66-14.46l10.82-5.15ZM328.04,1836.24l6.35,10.87-18.11,8.68c-1.49-3.98-2.76-8.01-3.8-12.08l15.56-7.47ZM334.87,1847.93l6.33,10.83-19.46,9.41c-1.92-3.77-3.64-7.6-5.13-11.49l18.26-8.75ZM341.69,1859.59l6.23,10.66-19.5,9.4c-2.28-3.47-4.36-7.01-6.24-10.62l19.51-9.44ZM361.71,1893.84l6.63,11.35-11.31,5.26c-3.77-2.88-7.39-5.99-10.83-9.31l15.51-7.3ZM368.83,1906.02l7.17,12.27-4.12,1.92c-4.85-2.72-9.52-5.76-13.98-9.1l10.93-5.08ZM376.48,1919.11l2.91,4.98c-2.19-1.04-4.35-2.15-6.48-3.31l3.57-1.66ZM403.98,1923.95l5.96,10.14c-5.96-1.14-11.81-2.71-17.5-4.67l11.54-5.47ZM411.19,1934.33l-6.34-10.79,16.89-8.01,8.02,13.46-13.21,6.2c-1.79-.25-3.58-.53-5.36-.85ZM422.6,1915.12l15.08-7.15,7.91,13.59-14.96,7.02-8.02-13.46ZM446.07,1922.39l7.58,13.03c-4.72.38-9.54.68-14.47.87-1.3.05-2.61.08-3.91.09l-4.16-6.98,14.95-7.01ZM471.55,1928.13l2.91,4.97c-5.81.83-11.8,1.53-17.97,2.08l15.05-7.05ZM472.42,1927.73l15.52-7.27,5.36,9.41c-5.73,1.16-11.67,2.19-17.81,3.09l-3.06-5.23ZM488.8,1920.06l16.13-7.55,7.53,12.89c-5.81,1.55-11.88,2.98-18.19,4.28l-5.47-9.61ZM505.8,1912.1l14.58-6.83,8.85,15.16c-5.04,1.65-10.31,3.23-15.81,4.71l-7.62-13.04ZM521.25,1904.87l15.78-7.39,9.8,16.59c-5.24,2.08-10.8,4.11-16.67,6.05l-8.91-15.26ZM537.89,1897.07l15.19-7.11,9.89,17.13c-4.73,2.22-9.82,4.45-15.26,6.63l-9.83-16.64ZM553.95,1889.55l14.95-7,9.63,16.62c-4.43,2.44-9.32,4.96-14.69,7.5l-9.89-17.12ZM569.77,1882.15l16.61-7.78,8.66,14.85c-4.26,2.82-9.49,6.06-15.67,9.49l-9.6-16.57ZM569.29,1881.32l-7.62-13.16,16.56-7.77,7.67,13.15-16.6,7.77ZM579.09,1859.99l15.58-7.31,7.63,13.19-15.54,7.27-7.67-13.15ZM595.53,1852.27l15.65-7.34,7.71,13.16-15.74,7.37-7.63-13.19ZM620.25,1858.51l17.59-8.24,2.1,3.51c-4.52,4.32-9.45,8.67-14.83,13.03l-4.86-8.3ZM654.63,1838.23l-6.36-10.69,16.62-7.8,1.61,2.73c-3.41,5.15-7.35,10.42-11.87,15.76ZM665.76,1819.33l3.9-1.83c-.82,1.35-1.68,2.71-2.57,4.08l-1.33-2.25ZM675.83,1795.04l5.87-2.78c-.88,2.52-1.87,5.11-3,7.74l-2.87-4.96ZM682.13,1790.99l-6.78,3.22-6.49-11.2,17.42-8.11c-.9,5.01-2.23,10.4-4.15,16.09ZM686.48,1773.76l-18.1,8.43-7.06-12.17,26.58-12.36c-.03,4.72-.41,10.13-1.42,16.11ZM660.84,1769.18l-7.36-12.69,32.89-15.48c.69,3.32,1.49,8.67,1.53,15.59l-27.06,12.58ZM653.01,1755.66l-6.38-11.01,35.88-16.92c1.04,2.99,2.01,6.11,2.89,9.37,0,0,.34,1.02.78,2.94l-33.16,15.61ZM646.15,1743.83l-3.5-6.04c.97-.15,1.93-.5,2.82-1.06l9.91-6.28c2.26-1.43,3.43-4.1,2.92-6.72-.12-.59-.25-1.17-.41-1.73l18.43-8.88c2.14,4.23,4.12,8.79,5.88,13.72l-36.05,16.99ZM657.61,1721.06c-1.19-3.81-3.13-6.91-4.97-9.2-.56-.7-1.21-1.27-1.93-1.73l18.52-8.96c2.34,3.4,4.56,7.1,6.63,11.09l-18.26,8.8ZM649.68,1709.57c-2.17-.97-4.73-.94-6.94.23l-9.91,5.24c-.91.48-1.68,1.13-2.28,1.88l-4.85-8.37,35.85-17.18c2.46,2.75,4.85,5.75,7.14,9.01l-19.01,9.19ZM625.22,1707.72l-6.43-11.09,32.12-15.42c3.38,2.76,6.73,5.88,9.96,9.42l-35.66,17.09ZM618.31,1695.81l-6.54-11.28,25.93-12.34c4.08,2.3,8.25,5.06,12.39,8.36l-31.79,15.26ZM560.92,1654.39l-12.18,5.78-3.56-5.98c5.07-.06,10.37,0,15.73.2ZM520.9,1655.23l.57.95-15.46,7.37-3.75-6.39c1.28-.19,2.56-.38,3.86-.56,0,0,5.77-.72,14.78-1.37ZM430.03,1676.91l10.35,17.92-17.15,8.17-10.82-18.31c5.42-2.6,11.29-5.22,17.61-7.78ZM411.56,1685.11l10.81,18.31-14.69,7-10.45-17.89c4.33-2.4,9.11-4.9,14.32-7.42ZM381.74,1701.8l9.59,16.41-13.74,6.55-8.23-14.46c1.66-1.16,3.33-2.31,4.98-3.49,2.02-1.43,4.49-3.12,7.4-5.01ZM360.29,1716.53c2.77-1.88,5.54-3.78,8.29-5.69l8.15,14.32-17.97,8.57-6.56-11.2c2.56-2.07,5.23-4.06,8.01-5.95.03-.02.05-.04.08-.05ZM351.46,1723.15l6.44,11-15.87,7.56-3.55-6.1c3.95-4.43,8.28-8.59,12.97-12.46ZM418.3,1935.41l11.94-5.6,3.92,6.58c-5.34,0-10.64-.33-15.87-.98ZM595.83,1888.7l-8.59-14.73,15.53-7.27,6.88,11.89c-1.4,1.05-2.78,2.12-4.16,3.19-2.18,1.69-5.41,4.08-9.66,6.92ZM703.63,1761.58c7.56-66.73-48.93-98.75-48.93-98.75,75.18-4,164.15-26.69,164.15-26.69l6.67,8.9c-52.49,38.7-121.89,116.55-121.89,116.55ZM1307.72,1462.2l-12.46,22.24s-16.46-111.21-12.9-169.93c0,0,3.56,31.14,19.57,43.59,0,0-3.56,69.4,24.91,93.42,0,0-11.57,3.56-19.13,10.68Z"/>
  <path class="uuid-32e15f92-a3e2-4a03-9926-023197312531" d="M5871.56,1141.45s43.65-25.92,13.08-63.02c-1.35-1.64-2.68-3.3-3.99-4.96-14.12-17.92-93.05-111.26-170.15-63.91-6.16,3.78-12.47,7.31-18.86,10.68-15.73,8.29-36.61,20.61-48.55,59.48-3.12,10.15-5.11,20.61-6.11,31.18-1.67,17.6-4.06,54.01,1.12,82.9,0,0-5.64,43.86-42.42,29.71,0,0-30.63-11.78-52.11,5.51-8.99,7.23-20.7,10.23-31.93,7.58-6.48-1.53-13.77-4.67-21.41-10.51-7.91-6.05-16.58-11.03-25.93-14.46-8.91-3.27-19.7-6.08-29.81-5.69-6.54.25-13.09.04-19.58-.88-8.72-1.24-20.83-3.48-34.11-7.45-12.46-3.73-25.18-6.55-38.08-8.22-31.09-4.03-83.45-7.2-124.1,8.65-18.31,7.14-37.63,11.4-57.27,12.11-31.25,1.13-86.34,14.82-161.3,78.45,0,0-29.72,27.34-57.56,63.5-9.25,12.01-20.03,22.79-32.26,31.75-1.89,1.38-3.85,2.77-5.89,4.13-3.57,2.39-7.8,3.57-12.1,3.49-8.34-.15-23.79,1.17-35.4,11.54-9.17,8.19-19.22,15.31-29.82,21.53-8.04,4.72-14.39,11.04-9.69,18.06,1.88,2.81,1.5,6.52-.98,8.82-4.76,4.41-10.14,11.33-4.86,16.79,2.2,2.27,2.97,5.55,2.06,8.58-1.92,6.41-3.46,17.08,3.4,25.61,3.5,4.35,5.74,9.55,6.62,15.06,1.17,7.33,4.81,17.12,15.39,22.77,8.25,4.4,18.05,4.87,26.81,1.61,19.2-7.13,64.2-28.39,69.98-72.47.96-7.31,3.96-14.2,8.7-19.86,12.07-14.4,37.05-40.74,70.76-58.16,10.09-5.21,20.92-8.82,32.1-10.85,18.66-3.38,59.59-13.92,101.28-45.19,0,0,7.93-5.81,19.59-7.75,11.38-1.89,22.97,1.85,31.25,9.89,12.13,11.79,46.3,35.71,123.19,34.65,0,0-18.52,67.9-59.73,135.47-17.09,28.02-40.26,51.89-67.75,69.83-55.57,36.26-160.33,128.84-57.86,265.83,0,0-42.09,34.92-74.97,99.07-15.49,30.22-37.83,56.52-65.63,76.04-1.84,1.29-3.67,2.65-5.47,4.07-6.94,5.49-7.51,15.84-1.12,21.97,5.06,4.85,10.54,12.05,14.19,22.4,0,0-19.81,49.52-72.16,76.4,0,0-90.32,44.77-118.14,108.65-6.78,15.56-15.18,30.37-25.4,43.93-17.78,23.6-47.5,57.61-90.99,90.78-11.82,9.02-27.19,11.96-41.51,7.99-15.9-4.41-39.55-7.56-64.46,1.1-10.58,3.68-18.99,11.92-22.76,22.47-6.05,16.96-10.81,47.47,5.04,91.82,1.24,3.46,2.62,6.86,4.08,10.23,2.79,6.44,10.36,28.63,7.23,74.59-2.2,32.32,1.2,64.83,10.56,95.84,6.52,21.59,16.12,43.3,30.13,57.27,6.62,6.6,15.99,9.84,25.18,8.12,8.44-1.58,17.64-7.4,21.89-23.91,1.22-4.73,1.34-9.67.49-14.47-3.99-22.5-13.44-107.99,55.52-180.22,3.6-3.77,4.44-9.42,1.98-14.03-.85-1.6-1.93-3.27-3.29-4.9-2.67-3.19-2.97-7.74-.64-11.18,11.17-16.53,43.61-61.22,91.79-100,10.56-8.5,21.72-16.22,33.29-23.28,18.14-11.08,60.63-39.03,103.02-81.31,15.3-15.26,32.56-28.41,51.33-39.11,32.98-18.79,88.06-54.08,133.3-102.16,23.62-25.11,49.18-48.32,76.52-69.32,39.99-30.73,92.77-73.22,111.99-97.45,0,0,38.2,49.52,96.21,69.33,0,0-89.6,60.58-90.02,151.93-.08,17.28-1.32,34.53-4.11,51.58-6.89,42.06-21.75,115.38-49.61,183.59-.93,2.28-3.66,3.21-5.78,1.96-3.65-2.15-9.34-3.97-14.39.98-.94.92-1.71,2-2.36,3.14-4.03,7.13-23.52,43.75-32.12,100.08-2.37,15.53,3.6,31.16,15.71,41.16,8.03,6.63,19.5,14.62,35.86,23.62,9.43,5.19,19.37,9.36,29.6,12.68,7.91,2.57,20.05,8.4,31.33,21.52,3.04,3.53,7,6.12,11.42,7.59,22.98,7.62,95.55,25.75,181.85-12.85,4.48-2,7.52-6.33,7.78-11.23.51-9.97-4.38-26.47-37.53-37.43-4.97-1.64-10.04-2.92-15.17-3.97-12.85-2.63-69.51-19.7-101-119.2-.67-2.12-2.47-3.68-4.66-4.04h0c-2.88-.48-4.98-2.99-4.96-5.91.19-20.08,4.62-96.25,58.06-170.34,0,0,31.14-46.14,60.1-110.29,11.13-24.66,24.22-48.41,39.19-70.95,5.71-8.59,11.62-16.89,17.13-23.57,8.4-10.16,15.53-21.3,20.98-33.3,15.49-34.06,31.42-94.94-21.88-140.65-5.15-4.42-10.17-8.99-14.94-13.82-9.49-9.6-24.68-25.64-40.04-44.67-7.69-9.53-14.91-19.42-21.76-29.57-8.16-12.09-29.13-41.17-54.35-60.91,0,0,7.67,1.1,17.23-4.43,2.55-1.47,5.16-2.85,7.87-4.01,5.42-2.33,15.39-8.19,22.47-21.48,2.46-4.62,5.74-8.75,9.63-12.24,1.37-1.23,2.93-2.55,4.72-3.95,4.44-3.47,9.51-6.03,14.91-7.63,6.02-1.77,15.67-5.65,25.02-13.79,6.34-5.52,13.57-9.92,21.27-13.32,10.74-4.75,26.9-14.15,43.13-32.05,7.05-7.78,15.37-14.29,24.69-19.13,7.32-3.8,16.33-9.48,24.06-17.3,6.92-7,15.34-12.35,24.56-15.82,29.98-11.27,95.76-42.84,142.45-115,0,0,3.81,63.84,29.42,106.29,13.06,21.65,24.86,44.04,35.96,66.76,17.73,36.3,51.83,80.01,109.7,63.57.63-.18,1.26-.35,1.89-.52,7.68-2,78.12-23.28,143.69-145.05,2.94-5.46,7.15-10.12,12.27-13.62,16.3-11.15,55.08-43.92,75.95-114.22,0,0,11.32-36.78-22.64-18.39,0,0,24.05-39.61-11.32-32.54,0,0,7.07-42.44-32.54-21.22,0,0-7.58-27.09-24.65-9.2-4.66,4.88-7.7,11.07-8.97,17.7-1.97,10.28-7.21,29.5-20.14,42.44,0,0-8.66-8.31-.17-16.8,0,0,20.46-23.32,4.98-31.48-2.04-1.07-4.56-.41-5.82,1.51-3.14,4.79-10.62,14-23.96,18.64-3.44,1.2-6.19,3.85-7.53,7.24-5.37,13.62-15.65,50.13,2.98,98.7,3.63,9.46,2.14,20.15-3.97,28.24-6.11,8.09-15.15,18.37-27.29,27.9-4.62,3.63-10.4,5.52-16.26,5.19-6.97-.39-17.69.71-27.38,8.69,0,0-1.32-2.84-3.97-5.84-2.51-2.84-4.32-6.23-5.13-9.94-2.89-13.12-12.02-44.36-37.37-72.24-10-11.01-16.31-24.87-18.09-39.63-4.42-36.64-22.57-104.57-95.81-124.24,0,0-12.26-2.83-19.81-7.55,0,0,2.19-11.85,12.93-14.38.86-.2,1.6-.75,1.98-1.55,1-2.1,2.1-6.42-2.65-10.48,0,0,15.57-3.3,10.38-13.68,0,0,0-13.21,7.55-15.57,0,0,11.62,11.22,14.55-15.07.68-6.07,1.55-12.12,2.61-18.14,1.13-6.45,2.37-14.81,2.69-21.95.15-3.43,2.15-6.47,5.21-8.02,1.75-.89,3.81-2.33,5.98-4.67,5.86-6.35,8.39-15.1,7.1-23.64-1.48-9.79-3.3-25.1-1.59-32.68Z"/>
  <path class="uuid-01c65625-1425-4f2d-90e2-18ee3186cd1c" d="M1498.42,2597.48s6.72,61.31,118.89,90.99c2.5.66,5.08.95,7.66.86,7.14-.24,23.89.07,39,6.87,2.05.92,4.01,2.03,5.9,3.24,11.27,7.18,68.73,40.86,119.36,16.61,11.54-5.53,18.71-17.33,18.34-30.11-.17-5.85-1.08-12.32-3.46-18.47-3.88-10.03-6.33-20.56-6.81-31.31-.45-10.1-.74-22.67-.36-35.23,0,0,0-3.23-1.94-5.48-7.03-8.2-10.27-18.99-8.03-29.56,3.66-17.22,9.38-40.89,17.88-68.44,8.98-29.07,20.11-57.42,33.06-84.95,17.86-38,55.21-131.76,49.68-242.01-1.21-24.24,3.53-48.42,13.59-70.51,9.29-20.38,23.83-46.6,46.31-76.33,0,0,49.04-61.08,69.69-105.82,0,0,51.7,130.81,110.58,210.63,16.34,22.15,40.16,37.62,67.02,43.66,22.01,4.95,51.79,12.32,82.22,21.88,0,0,77.5,23.4,161.06,31.1,8.59.79,17.2,1.34,25.82,1.73,14.27.65,61.26,4.45,122.26,26.71,8.02,2.93,16.05,5.79,24.13,8.53,12.2,4.13,33.04,11.33,63.34,22.26,0,0-28.86,23.25,53.48,61.23,4.03,1.86,8.12,3.56,12.24,5.2,8.94,3.55,35.54,16.85,38.17,50.3.17,2.14.21,4.29.18,6.43-.1,6.76.8,45.09,35,29.69,15.52-6.99,27.08-20.54,32.04-36.82,6.85-22.48,14.39-60.34,4.21-98.93-3.44-13.04-9.33-25.27-17.01-36.35-6.34-9.15-15.66-27.85-10.33-53.88,0,0,8.85-45.85-19.34-85.43-3.83-5.38-9.39-9.36-15.78-11.03-9.1-2.39-22.08-.84-35.67,17.03-.64.84-1.24,1.7-1.84,2.57-1.18,1.69-5.34,6.6-13.8,6.19-5.01-.24-10.03.21-14.86,1.58-12.06,3.4-32.41,11.24-46.69,27.81,0,0-31.36-6.66-76.08-23.43-31.6-11.85-61.98-26.69-90.94-44.01-38.16-22.83-128.57-67.22-224.43-44.4,0,0-41.02,8.2-49.36-57.11-.56-4.42-1.18-8.83-1.9-13.23-4.01-24.26-16.51-96.53-32.47-156.21-8.74-32.66-14.32-66.09-16.28-99.84-.03-.52-.06-1.04-.09-1.57-.41-7.47.76-14.94,3.45-21.91,10.7-27.76,33.22-114.54-59.06-199.02,0,0-31.83-29.25-37.85-71.41,0,0,51.12-12.49,106.74-45.79,18.07-10.82,34.9-23.57,50.34-37.9,6.65-6.17,15.77-14.16,26.43-22.25,13.66-10.36,17.4-29.34,8.66-44.09-23.56-39.75-73.56-111.55-143.12-144.21,0,0-4.04-2.13-10.4-6.3-25.56-16.79-44.41-41.92-53.84-71.02-4.49-13.85-12.45-31.14-26.51-47.46-21.24-24.64-34.25-55.36-36.13-87.84-.28-4.85-.44-9.97-.44-15.37,0,0,23.41-16.27,21.51-61.94,0,0,14.63,12.04,27.53-1.72,0,0,10.37,6.14-2.52,15.91-7.16,5.42-11.89,13.5-12.7,22.44-.12,1.3-.18,2.65-.16,4.05.06,5.98-.13,11.95-.81,17.89-3.58,31.66-5.57,127.32,92.32,169.51,2.87,1.24,5.07-2.74,2.48-4.49-27.68-18.78-71.08-55.36-57.12-92.81,0,0,8.9,22.98,52.15,37.29,11.49,3.8,21.52,11.16,28.3,21.19,7.32,10.84,14.25,27.02,14.79,49.75.41,17.1,11.19,32.4,27.44,37.72,3.24,1.06,6.79,1.78,10.67,2.02,0,0-20.11-18.62-16.67-39.24.87-5.22,1.24-10.51.8-15.79-.61-7.41-2.1-17.49-5.7-27,4.18,9.27,16.35,31.65,37.59,35.13,4.14.68,7.53,3.69,8.74,7.71.25.82.47,1.72.65,2.7.24,1.3.37,2.61.44,3.92.2,4.08,1.73,19.51,13.15,21.92,1.8.38,3.6-.69,4.19-2.43,3.48-10.19,12.67-46.14-22.54-65.21,0,0-33.75-24.1-25.92-48.24,1.16-3.57,5.28-5.24,8.54-3.37,4.72,2.72,11.72,11.18,21.17,33.67,1.17,2.78,3.23,5.12,5.9,6.53,3.4,1.8,8.86,3.72,16.78,3.89,6.8.14,13.44,2.32,18.89,6.37,4.47,3.32,8.06,7.76,6.6,13.01-1.16,4.16,3.62,7.37,6.92,4.58,4.46-3.77,6.33-10.33-1.44-21.72-5.07-7.42-11.97-13.4-19.92-17.6-10.26-5.41-28.16-16.21-40.96-31.33,0,0-18.93-22.37-11.18-40.44,0,0,42.08,12.89,48.64,37.64.41,1.57,2.69,1.33,2.75-.28.51-13.22-4.26-32.95-30.75-50.26,0,0,20.79-18.48,47.06-.08,1.91,1.33,4.5-.26,4.17-2.56-1.21-8.44-5.99-23.15-24.41-27.43-8.63-2.01-15.81-8.11-18.81-16.44-.09-.26-.19-.53-.28-.79,0,0,1.17-1.75,9.27,1,1.56.53,2.8-1.38,1.68-2.58-15.08-16.18-65.36-65.94-115.04-68.1,0,0,18.51-2.26,40.82,3.69,2.03.54,3.09-2.32,1.2-3.23-26.11-12.56-69.08-27.28-111.71-15.95,0,0-21.88-14.77-44.92-6.1,0,0-18.06-110.96-129.02-96.77,0,0-48.92,6.67-97.23,47.89-8.35,7.12-9.92,19.42-3.68,28.45.09.13.18.26.27.39,0,0-4.78,24.42-6.93,52.61-.62,8.11,1.17,16.2,5.04,23.35.06.11.12.23.18.34,3.77,7.03,4.27,15.36,1.37,22.79-2.79,7.15-7.03,16.9-12.6,26.53-.3.52-.61,1.03-.92,1.55-1.69,2.85-10.9,21,30.34,19.42,0,0,1.05,5.78.28,12.41-.29,2.46,1.81,4.52,4.27,4.25,2.7-.3,6.22-.14,10.08,1.41,0,0-.57,6.78-2.61,14.39-.7,2.6.84,5.3,3.44,5.98.17.04.35.09.53.14,5.55,1.61,9,7.09,8.2,12.81-1.26,9.05-.55,22.66,16.18,19.42,2.11-.41,4.16-1.06,6.15-1.87,8.73-3.54,46.78-17.65,50.46,3.8.37,2.16.72,4.32,1.16,6.46,1.12,5.44,3.03,15.1,4.35,23.8.32,2.11.63,4.22,1.14,6.29.57,2.32-.43,8.92-24.48,17.17,0,0-38.75,14.53-34.14,58.46.56,5.29.88,10.61.79,15.93-.23,13.55-1.95,38.54-9.67,72.72,0,0-13.77,68.83-12.04,124.75,0,0-33.55,4.3-84.31-18.93,0,0-12.19-4.99-29.46-13.18-8.26-3.92-14.2-11.51-16.01-20.47-2.8-13.86-8.08-35.04-16.23-48.85-.77-1.31-1.54-2.63-2.27-3.97-4.72-8.63-22.62-39.54-30.37-27.1-1.63,2.61-1.95,5.84-1.06,8.79,1.51,5,5.07,14.82,12.57,27.24,4.21,6.97-5.92,13.64-10.55,6.95-.1-.15-.21-.3-.31-.46-2.6-3.89-5.92-7.26-9.77-9.92-11.69-8.1-33.51-20.54-31.61.96,0,0,0,8.6,6.88,13.77,0,0-20.02,8.6-7,24.09,0,0-14.08,5.16-4.4,21.51,0,0-6.24,13.56,1.74,23.78,1.21,1.55,2.7,2.86,4.33,3.97,5.85,3.96,27.79,18.02,58.43,27.87,6.49,2.09,12.6,5.22,18.08,9.28,24.55,18.21,99.28,69.99,174.01,84.8,0,0,8.23,16.46,14.52,50.48,3.32,17.94,4.68,36.18,4.34,54.42-.32,17.2,1.4,47.74,13.97,81.26,4.49,11.96,3.83,25.25-1.69,36.77-21.25,44.39-73.89,159.5-104.27,270.9,0,0-6.35,23.09-17.63,51.3-3.24,8.09-6.81,16.05-10.63,23.88-4.89,10.04-15.35,35.86-14.66,72.09.28,14.6.01,29.21-.96,43.79-1.6,24.12-4.47,60.23-9.18,99.04-2.76,22.71-5.01,45.47-6.86,68.27-3.08,37.84-10.08,106.85-25.5,204.95-2.14,13.62-10.09,25.63-21.79,32.93-17.98,11.21-43.4,40.33-85.61,39.31-9.7-.23-19.41.26-29.06,1.26-10.37,1.07-24.12.57-33.64-7.05,0,0-54.2-37.85-46.46,30.97ZM2098.93,1253.65c49.04,18.07,57.64,38.71,57.64,38.71-22.37,15.49-57.64,55.06-57.64,55.06-6.88-55.92,0-93.78,0-93.78Z"/>
  <g class="uuid-246d57c5-1824-4070-8b44-f83f292db0cb">
    <path class="uuid-bc08e917-bfb9-4ca5-a851-4807e74d3768" d="M2728.64,268.59c-5.15-29.42-17.6-25.29-23.3-21.6-3.95,2.56-8.11,4.8-12.35,6.85l-222.92,107.75c-3.16,1.53-4.82,4.88-4.38,8.16l-733.74,368.76v.22c-.85-1.24-2.48-1.68-3.84-1.02l-9.65,4.71c-6.49,3.17-13.06,6.18-19.68,9.08-49.08,21.46-67.21,51.52-73.5,74.61-4.86,17.84-2.38,36.86,6.4,53.14,14.28,26.5,29.91,32.56,41.67,32.23,9.53-.27,18.37-5.06,24.08-12.7,37.15-49.63,11.56-138.31,11.56-138.31l25.89-13.36c1.09-.56,1.44-1.96.73-2.97l-.72-1.06,739.88-356.57c2.25,1.63,5.29,2.02,7.97.77l208.86-97.68c10.36-4.84,21.07-8.83,31.91-12.46.06-.02.13-.04.19-.06,3.51-1.22,5.57-4.82,4.93-8.48Z"/>
    <path class="uuid-bc08e917-bfb9-4ca5-a851-4807e74d3768" d="M2880.42,1343.16l-2.84-29.11c-1.5-15.41-11.5-28.74-25.94-34.35-.75-.29-1.18-.43-1.18-.43-23.71-117.8-82.88-263.14-109.26-324.67-6.13-14.31-12.66-28.44-19.46-42.45-35.4-72.87-30.03-113.11-30.03-113.11,24.14-9.13,46.14-19.97,58.49-26.39,9.33-4.85,15.87-13.87,17.32-24.28,1.06-7.62.07-13.23.07-13.23,59.79-27.99,99.72-57.59,120.83-75.4,10.12-8.54,14.28-22.18,10.85-34.97-2.38-8.85-3.32-16.96-3.69-22.58-.68-10.38-1.74-20.73-3.35-31-10.2-65.25-27.39-99.95-34.99-112.76-6.24-10.52-12.32-21.15-18.12-31.92-34.5-64-55.22-111.64-63.44-131.49-2.1-5.08-4.02-10.23-5.83-15.42-24.73-70.59-76.14-49.14-76.14-49.14-14.98-13.45-22.96,3.02-22.96,3.02-11.98-8.43-21.96,3.44-21.96,3.44-7.07-7.66-15.89-1.06-21.92,5.64-4.54,5.04-7.03,11.6-7.03,18.39v8.36c-13.98-10.54-19.97,3.55-19.97,3.55-6.42-5.13-11.6-3.67-14.48-1.97-1.48.87-2.6,2.23-3.24,3.83l-7.24,18.11c-8.19-4.41-15.98-.87-20.61,2.34-2.71,1.88-3.95,5.25-3.15,8.44l4.79,19.17c19.97,39.94,63.9,68.89,63.9,68.89-3,43.93-25.96,83.87-25.96,83.87-25.39,42.84-42.58,102.08-48.57,124.6-1.93,7.25-4.82,14.22-8.73,20.62-40.13,65.71-122.41,102.38-122.41,102.38-7.08-6.63-12.98-14.25-17.36-20.67-4.73-6.94-8.12-14.74-9.79-22.98-4.53-22.35-18.78-34.23-18.78-34.23,10.98-17.97-12.98-62.9-12.98-62.9-15.97-28.95-23.96,0-23.96,0-18.97-40.93-57.91-58.91-57.91-58.91-62.66-33.87-105.21,2.63-116.69,14.51-2.55,2.64-5.15,5.22-7.75,7.81-69.08,68.66,27.6,164.39,27.6,164.39-25.96,6.99,4.99,24.96,4.99,24.96,12.28,6.43,20.79,11.83,25.73,15.21,2.58,1.76,5.04,3.71,7.41,5.75,18.29,15.74,24.76.01,24.76.01,8.11,11.86,16.22,17.08,21.17,19.33,3.92,1.79,7.46,4.3,10.37,7.48,8.1,8.84,15.39,18.12,15.39,18.12-18.4,4.87-29.46,13.55-35.74,20.49-4.64,5.12-4.05,13.08,1.25,17.5l9.97,8.31c3.33,2.78,4.91,7.14,4.1,11.4-13.45,70.83,31.71,119,46.11,132.28,3.79,3.49,7.45,7.11,10.94,10.9,64.47,70.01,111.01,138.75,130.27,168.77,6.22,9.69,9.31,21.05,8.91,32.55-1.58,45.38,3.33,91.99,6.11,113.97,1,7.92,5.56,14.93,12.36,19.12,16.06,9.89,26.36,18.82,26.36,18.82l-2,23.96c-57.57,75.93-37.05,209.03-28.75,250.72,1.58,7.95,7.11,14.54,14.66,17.47h0c3.28,1.28,4.77,5.09,3.23,8.25l-2,4.08c-1.82,3.72-1.51,8.12.82,11.55h0c3.31,4.88,5.06,10.65,5.02,16.54-.39,51.11-3.94,92.42-6.4,115.24-1.22,11.3-3.04,22.53-5.43,33.64h0c-1.4,6.49-2.11,13.11-2.11,19.74v10.38c0,2.15-1.37,4.05-3.41,4.73h0c-3.36,1.12-5.69,4.19-5.85,7.73l-1.43,30.77c-.18,3.84-2.57,7.22-6.12,8.68l-11.14,4.56c-3.02,1.24-5,4.18-5,7.44v4.95c0,1.57-1.01,2.97-2.5,3.46l-14.41,4.8c-6.73,2.24-12.85,6.06-17.77,11.17-42.18,43.83-74.01,95.36-91.61,127.08-8.4,15.14-17.97,29.62-28.93,43.01-12.13,14.82-19.88,33.07-23.96,44.55-3.68,10.37-11.1,18.98-20.78,24.22-6.21,3.36-12.55,5.89-17.68,7.65-5.89,2.03-12.11,2.89-18.34,2.7-50.25-1.53-55.42,46.41-55.68,63.49-.15,10.24-.72,20.47-1.76,30.66-5,48.9-16.09,85.11-16.09,85.11-21.3,77.12,7.65,125.61,24.45,145.85,6.03,7.26,14.55,11.99,23.9,13.28,14.09,1.95,24.56,1.55,31.88.47,8.53-1.25,15.83-6.72,19.55-14.5,17.92-37.53,22.03-99.18,22.03-99.18,4.99-58.91,22.96-86.86,22.96-86.86,6.41,3.49,13.83,5.97,18.91,7.42,3.76,1.08,7.8.32,10.94-2.02,86.78-64.76,186.44-203,231.01-268.33,13.63-19.97,28.63-38.98,45.14-56.65,88.95-95.17,105.35-218.57,105.35-218.57,0,23.44,6.19,68.8,10.02,94.61,2.01,13.52,2.97,27.18,2.88,40.85-.4,60.65-2.26,148.08-3.26,192.23-.32,14.11-.25,28.23.04,42.34.57,28.04-3.2,50.44-4.35,56.6-.26,1.41-.52,2.82-.73,4.24-6.45,43.34.55,89.89,6.35,117.5,3.21,15.29,2.84,31.11-1.16,46.21-6.45,24.31-8.78,49.39-8.78,49.39-34.11,42.43-84.17,39.1-99.91,36.82-6.23-.91-12.63.47-17.75,4.13-2.33,1.66-4.09,3.52-5.41,5.3-2.84,3.82-3.48,8.82-1.84,13.28,11.43,30.98,35.7,52.42,49.94,62.9,6.69,4.92,14.44,8.2,22.64,9.51,41.56,6.65,61.84-1.88,69.9-7.13,5.01-3.27,10.6-5.57,16.47-6.69,3.06-.59,5.74-.93,7.99-1.13,4.1-.37,8.22.21,12.06,1.68,11.8,4.51,21.09,2.19,25.98.15,2.35-.99,4.12-3,4.84-5.45,12.1-41.01,14.93-85.4,14.93-85.4l10.49,3c4.8,1.37,9.58-2.25,9.55-7.25-.09-15.82,6-29.03,11.47-37.67,6.67-10.54,11.41-22.19,14.02-34.39,13.65-63.79,14.56-126.47,13.16-165.9-.91-25.72.15-51.47,3.23-77.02,2.26-18.71,3.21-36.94,3.44-53.17.5-35.05,6.23-69.81,16.8-103.23,6.21-19.63,8.52-37.83,9.34-50.2,1.16-17.43,2.75-34.83,4.93-52.16,12.04-95.78,26.2-218.91,31.85-268.49,2.1-18.47,3.38-37.02,3.72-55.61,3.23-179.52-50.13-231.1-50.13-231.1ZM2685.73,474.56s-7.99-70.89-9.98-135.78c0,0,8.99,2,19.97-3.99,0,0,24.96,10.98,43.93,67.89,0,0,33.92,76.96,46.92,196.68,0,0-62.9,15.97-134.78,38.94,0,0,45.93-73.88,33.95-163.74Z"/>
  </g>
  <path class="uuid-3bf14623-202a-483d-9d8d-f23828e5c4ce" d="M4423.14,1197.83c-9.22,14.1-.98,13.69-19.44,32.8-18.47,19.11-18.74,22.02-26.37,34.8-7.63,12.78-28.34,53.08-28.34,53.08,0,0,3.71-49.78-1.24-66.07-4.95-16.29-9.73-37.54-8.35-42.98,1.38-5.44,10.45-30.7,17.03-47.97,6.57-17.28,13.09-27.53,13.09-27.53,0,0,35.4,13.53,45.7,13.01,10.31-.51,29.06,2.68,29.06,2.68-3.34,7.61-11.94,34.08-21.15,48.17h0ZM5346.8,1381.28c15.16,4.71,38.03,10.61,39.39,11.56,1.93,1.35,21.87,7.58,30.06,6.14,8.2-1.44,14.53-11.27,16.3-13.01,1.77-1.74,10.68-1.36,12.96-5.4,2.28-4.04,6.3-6.31,8.02-9.08,1.72-2.77,7.04-8,7.04-8,0,0,7.8-38.42,8.89-45.5,1.09-7.08,4.01-6.81.45-15.94-3.56-9.12-9.49-16.26-13.5-22.05-4.01-5.79-61.14-46.75-64.1-50.32-2.97-3.57-10.03-10.45-13.72-14.09-3.7-3.64-5.54-7.47-8.1-9.1-2.56-1.63-55.86-38.64-71.49-53.56-15.62-14.93-29.66-31.17-40.49-40.96-10.82-9.79-14.78-14.56-25.23-25.2-10.45-10.63-10.29-15.6-31.52-26.94-21.23-11.34-27.61-15.15-38.92-26.16-11.3-11.01-10.55-12.7-21.64-19.59-11.09-6.89-10.83-9.79-23.71-19.48-12.88-9.69-8.65-7.83-19.64-12.65-10.99-4.82-26.52-26.27-26.52-26.27l23.6-23.91s24.16-4.52,43.05-23.43c18.9-18.93,31.73-55.63,31.72-57.91,0-2.27-1.33-3.86-1.33-3.86,0,0,21.25-42.08,13.65-86.75-7.61-44.68-46.57-79.93-46.57-79.93,0,0-54.51-44.6-92.07-60.08-37.56-15.48-98.71,5.55-120.61,22.15-21.91,16.59-43.05,56.7-43.05,56.7l-11.41,28.26-2.66,12.94-26.68,28.62s-1.96,2.16-15.63-14.92c-13.66-17.09-14.61-19.52-31.21-20.76-16.59-1.24-20.88,3.94-34.89,12.91-14.02,8.96-2.6,5.91-31.32,18.51-28.72,12.6-31.62,12.33-47.93,33.39-16.3,21.07-23.21,48.28-23.21,48.28,0,0-81.71,43.76-101.44,54.26-19.73,10.49-24.82,24.39-30.26,23.01-5.44-1.38-48.53,4.9-77.18,10.47-28.65,5.57-41.39,7.03-65.08,12.76-23.69,5.73-51.49,11.66-66.3,13.23-14.8,1.57-14.53-1.34-37.64,7.67-23.11,9.01-41.89,21.94-47.02,26.74-5.14,4.81-5.98,4.43-22.08,29.62-16.1,25.19-22.31,41.62-25.13,59.53-2.83,17.92,2.39,31.3,2.39,31.3,0,0,15.24,65.16,12.51,85.14-2.71,19.97,10.71,98.45,8.71,112.19-2,13.74-4.83,31.66-1.95,35.44,2.88,3.79,5.1,6.77,5.1,6.77,0,0-8.06,20.65-14.05,33.14-1.46,3.05-1.92,5.73-1.78,8.33-220.19-103-515.97-240.92-651.47-303.9,1.35-3.48,2.57-7.29,3.64-11.52,3.35-13.18,3.17-41.03,2.3-42.73-.87-1.71-7.87,2.7-14.68,13.11-3.15,4.84-9.67,16.83-16.21,29.55-30.37-14.1-48.15-22.32-48.49-22.4-2.56-.61-22.75-6.02-25.02-4.78-2.27,1.24,8.48,7.68,20.99,15.32,7.12,4.35,28.42,16.28,45.48,25.79-4.84,9.77-8.95,18.55-10.69,23.14-4.76,12.53-8.32,26.18-4.06,25.68,4.25-.5,16.65-9.49,22.88-16.41,6.17-6.86,11.38-12.74,15.73-19.21l665.95,317.18v.65c-.29,19.03,6.35,36.05,19.97,44.05,13.62,8,18.12,6.95,18.12,6.95,0,0,7.07,9.15,15.79,9.96,8.73.81,16.29-4.95,16.29-4.95,0,0,9.13,9.05,24.14,11.61,15.02,2.55,22.04,2.62,22.04,2.62,0,0-19.03-.29-2.75,77.42,16.29,77.72,70.26,115.52,157.54,141.75,87.28,26.23,142.65,42.47,142.65,42.47,0,0-30.65,155.9-42.24,171.98-11.6,16.08-14.03,17.02-15.26,25.56-1.23,8.53-1.92,11.26-1.92,11.26l-13.18-3.27s-14.26,8.36-14.61,13.75c-.35,5.39,30.13,102.44,30.13,102.44,0,0-8.34,10.95-9.27,13.07l-7.79,17.74s-361.25-268.99-378.42-273.51c-17.17-4.51-67.64,27.77-67.64,27.77,0,0,1248.06,881.64,1281.87,896.48,33.81,14.84,73.34,12.04,73.34,12.04,0,0,63.24,58,95.9,66.3,32.66,8.28,127.11-36.94,113.17-51.12-13.93-14.19-129.21-54.72-129.21-54.72,0,0,15.14-11.5,8.91-20.28-6.22-8.78-62.03-17.15-87.38-28.28-25.35-11.13-299.57-171.84-303.79-173.7-4.22-1.85-125.75-117.71-125.75-117.71,0,0-15.21-48.01-28.17-75.88-12.97-27.87-20.99-39.46-30.12-48.51-9.13-9.05-28.92-32.86-28.92-32.86,0,0-3.96-4.76-11.07-23.01-7.11-18.24,18.64-148.07,20.9-185.38,2.27-37.31,15.8-31.37-.65-62.79-16.45-31.42-21.93-41.89-34.88-85.88-12.95-43.99-49.15-172.79-49.15-172.79,0,0,1.33-3.01,3.19-7.85l485.08-316.4h0ZM4870.78,1669.09c2.12-8.92,3.48-18.03,2.84-25.49-1.98-23.05,15.15-27.63-8.24-40.92-23.4-13.3-37.09-14.27-46.96-21.62-9.87-7.36-17.56-28.88-17.56-28.88,0,0-4.2-17.97-10.22-22.63-6.02-4.66-11.07-23.01-11.07-23.01,0,0,57.72-126.88,60.07-146.01,2.35-19.14,8.7-24.41,26.6-46.8,17.89-22.38,31.74-26.39,42.33-45.93,10.6-19.54,18.1-18.26,24.37-41.72,6.26-23.45,10.18-27.78,13.68-40.36,3.51-12.58,37.49-51.56,37.49-51.56,6.65.9,39.83,19.5,56.46,29.83,16.63,10.33,47.5,15.81,51.93,21.79,4.43,5.98,12.94,2.66,17.58,12.76,4.64,10.1,50.65,29.29,65.02,35.6,14.36,6.31,32.32,18.23,40.77,21.94,8.45,3.71,24.3,6.64,34.65,15.21,10.35,8.57,48.11,28.18,48.11,28.18l7.88.43,39,52.41s-9.85-2.81-13.09,6.85c-.58,1.72-1.05,3.25-1.43,4.64-144.36,95.59-323.88,214.72-460.21,305.31h0ZM3510.43,1116.14c-3.75,3.31-9.7,5.03-9.7,5.03,0,0,3.18-9.76,3.38-10.47,0,0,9.46,1,10.31.8.87-.2-.24,1.34-4,4.65h0ZM3529.1,1061.97s3.89-7.88,5.33-9.55c1.44-1.67,1.63-1.39,1.63-1.39,0,0,1.5,6.54,1.05,11.46-.47,4.93-2.53,7.02-2.53,7.02-.42-.39-5.47-7.55-5.47-7.55Z"/>
  <path class="uuid-5e5175b3-e16c-4723-9014-a3e3bf00a419" d="M3499.2,2344.16c.29,1.15.57,2.31.86,3.46.81,3.17,5.16,13.2,28.56,33.76,3.42,3.01,6.19,6.69,8.13,10.81,6.93,14.66,25.59,50.55,45.49,58.35,0,0,61.07,23.42,128.71,11.33,5.46-.98,10.32-4.09,13.48-8.66,7.53-10.88,16.1-32.43-13.05-52.71-9.17-6.38-17.81-13.47-25.66-21.41-19.84-20.06-50.27-54.6-47.25-75.03,0,0,20.51-151.51,46.58-184.4,1.99-2.51,3.9-5.08,5.62-7.78,14.46-22.67,70.84-112.65,79.89-150.91,1.48-6.25,3.41-12.37,5.93-18.28,8.04-18.87,25.64-55.03,49.47-74.59,10.8-8.86,20.08-19.46,26.88-31.66,2.07-3.72,4.01-7.69,5.6-11.77,0,0,79.41,16.77,147.96,8.38,0,0,34.03-1.48,29.1-51.79,0,0,88.53,16.52,166.21-1.97,0,0,.83,5.83,4.58,12.07,3.01,5.02,4.24,10.91,3.68,16.74-3.35,35.08-11.34,148.45,19.26,200.19,6.09,10.3,11.27,21.11,15.13,32.44,4.86,14.28,10.33,33.4,12.76,52.7,2.9,23.11,7.19,46.04,13.43,68.49,7.8,28.09,12.99,68.7-5.53,104.95-5.51,10.79-5.44,23.7.52,34.25,6.97,12.33,22.75,23.18,58.01,17.26,0,0,45.65-6.65,94.93,29.21,6.21,4.52,13.35,7.58,20.88,9.07,31.74,6.29,111.84,18.2,111.91-21.77.02-10.27-5.37-19.79-13.98-25.38-33.16-21.52-144.94-95.8-149.14-121.83-14.91-18.3-19.72-51.75-21.09-77.15-1.02-18.79-3.27-37.48-6.81-55.97-2.39-12.49-4.04-30.27-2.01-53.38,1.16-13.21,1.62-26.47,1.2-39.72-1-31.33-3.55-85.1-9.77-115.01-1.78-8.55-2.27-17.32-1.57-26.03,2.17-26.8,4.98-83.83-6.88-114.18-2.06-5.29-3.95-10.64-5.5-16.09-7.18-25.29-24.45-88.77-26.07-119.47-.51-9.64-1.41-19.26-2.85-28.8-6.97-46.09-25.05-157.35-39.48-172.93,0,0-30.1-50.31-33.06-80.89,0,0-2.71-19.9-23.3-30.25-1.84-.92-3.21-2.57-3.77-4.55-3.27-11.7-13.91-52.63-11.4-81.1l.61-1.15c2.19-4.11,3.29-8.71,3.2-13.36-.55-26.53-2.85-119.83-8.74-152.68,0,0,16.25,27.5,39.18,39.23,3.7,1.89,7.24,4.06,10.72,6.32,7.54,4.88,23.39,10.32,39.08-14.49,1.24-1.96,3.28-5.16,4.56-7.09,11.9-17.92,58.21-89.88,66.8-136.52.77-4.21,3.06-7.98,6.41-10.64l11.3-8.98,3.18,1.5c2.92,1.37,6.41.24,7.96-2.6l32.23-59.03c1.98-3.62,3.32-7.55,3.99-11.62l.7-4.29c.63-3.91,3.14-7.31,6.76-8.93,7.33-3.29,21.65-15.31,40.87-58.06,0,0,36.32-64.44,47.8-92.19,2.05-4.96,4.29-9.83,6.62-14.67,5.7-11.84,12.89-38.41-21.06-60.91-4.19-2.77-8.35-5.58-12.42-8.52-8.12-5.87-26.55-17.22-60.83-29.24-15.52-5.44-32.36-6.28-48.21-1.87-17.44,4.85-35.21,16.36-34.71,43.16,0,0-14.3-9.37-25.15,5.92,0,0-49.32-46.86-91.74-56.23,0,0-26.47-7.89-37.15,0l-3.01-16.08c-1.41-7.53.99-15.27,6.4-20.69l8.61-8.61,25.29,4.92c7.83,1.52,15.47-3.54,17.01-11.37.66-3.38,1.1-7.58,1.1-12.78,0,0,2.96-26.15,6.41-51.3,0,0,6.67-29.02-27.93-37.17-4.09-.96-7.9-2.84-11.1-5.55l-22.64-19.18c-3.06-2.59-5.48-5.86-7.01-9.57-5.33-12.94-27.37-47.11-112.96-54.65-6.2-.55-12.44-.28-18.56.82-11.32,2.04-28.78,6.59-35.41,15.89-5.45,7.64-12.72,13.8-21.4,17.37-9.63,3.97-21.31,12.06-31.53,28.41,0,0-5.57.59-12.31.64-12.05.1-22.85,7.55-27.1,18.82-7.21,19.1-14.88,52.28-10.89,102.36,0,0,2.47,37.98,33.05,53.76,0,0-15.4,62.06-59.23,88.5-2.88,1.74-5.9,3.22-8.99,4.54-10.14,4.31-42.89,18.92-65.4,36.76-6.28,4.97-13.22,9.05-20.6,12.16-20.8,8.76-62.41,34.72-51.95,99.72,0,0,32.97,126.92,58.97,181.13,5.81,12.12,9.77,25.06,11.47,38.39.73,5.75,1.29,11.79,1.39,17.32.21,11.36,1.27,22.68,3.42,33.84,4.96,25.8,15.82,64.99,38.01,85.07,5.69,5.14,9.61,11.95,11.43,19.4,2.82,11.54,5.73,27.93,3.03,39-.37,1.53-.93,3-1.6,4.42-3.21,6.84-17.62,39.76-17.62,80.08,0,0-51.02,72.96-66.8,274.67-.44,5.67-.5,11.38-.12,17.06.62,9.24.7,26.4-5.32,40.48-4.39,10.26-7.09,21.18-7.54,32.33-.13,3.3-.2,6.9-.17,10.75.11,14.55-2.2,29.01-6.93,42.76-1.57,4.57-3.1,9.98-4.31,16.2-3.1,15.9-8.34,31.35-15.97,45.64-4.06,7.59-7.69,17.12-8.63,27.91-1.01,11.65-3.86,23.07-8.84,33.65-5.58,11.89-14.35,26.21-27.68,38.49-14.66,13.51-27.56,28.83-37.86,45.89-21.86,36.21-52.78,97.37-62.23,166.05-1.33,9.69-2.95,19.33-5,28.9-2.94,13.7-7.5,32.55-13.44,50.09-4.77,14.09-8.86,28.39-12.29,42.86-7.16,30.14-21.19,81.1-40.92,115.63,0,0-30.15,34.82-22.87,63.29ZM4209.12,782.98c23.18-37.48,80.39-105.55,80.39-105.55,18.25,22.19,0,74.42,0,74.42l-10.17,29.74c-1.26,3.67-2.82,7.24-4.65,10.66-16.58,30.93-4.42,54.36-4.42,54.36-.99,8.88-20.96,31.17-20.96,31.17.25-47.25-40.2-94.8-40.2-94.8Z"/>
  <path class="uuid-044a379c-50d5-40ae-b698-6d08cedacbc8" d="M3791.02,1484.89c1.4-7.99,1.78-16.12,1.2-24.21-.66-9.2-1.07-17.93-1.31-26.09-.9-31.59,1.97-63.15,8.06-94.16,20.03-102.03,4.04-201.45-7.85-253.42-4.04-17.66-10.29-34.72-18.17-51.03-12.58-26.06-16-60.25-16-60.25l7.98-6.21c1.81-1.41,2.7-3.7,2.3-5.96-48.47-275.55-127.3-314.1-147.45-319.48-9.8-2.62-19.53-5.51-29.06-8.98-64.31-23.38-130.05-61.23-158.7-78.57-10.07-6.09-16.59-16.68-17.46-28.42-1.56-21.16,1.38-36.61,1.38-36.61,13.35-13.35,16.99-54.61,16.99-54.61,13.11-.82,16.27-10.49,16.94-16.68.47-4.3,1.42-8.54,2.97-12.58,32.72-85.35-2.92-52.04-2.92-52.04.61-55.88-13.69-97.78-27.96-125.54-14.4-27.99-41.42-47.34-72.57-51.84-24.69-3.57-46.78-2.65-64.54-.22-38.04,5.23-69.51,32.51-79.93,69.46-13.87,49.16-12.26,108.12-12.26,108.12-34.78-4.97-10.97,43.77-1.21,61.59,2.15,3.92,3.88,8.06,5.12,12.36,7.47,26.01,19.15,12.21,19.15,12.21,1.21,47.33,21.84,59.46,21.84,59.46,3.74,13.71,3.96,28.06,3.29,38.77-.67,10.64-5.73,20.52-13.99,27.25-47.26,38.5-107.47,66.33-132.68,77.11-6.39,2.73-13.05,4.8-19.9,5.99-123.75,21.53-250.54,263.48-250.54,263.48-12.14,14.56-3.64,21.84-3.64,21.84-10.21,13.61-22.79,32.58-29.41,42.71-2.37,3.63-5,7.07-7.71,10.44-8.65,10.77-10.6,26.54-10.77,37.48-.15,9.84-1,19.65-2.52,29.37-7.85,50.29-1.26,87.79,5.02,109.27,2.71,9.28,6.64,18.14,11.43,26.53,14.93,26.2,17.08,62.05,17.18,79.08.06,11.05,3.12,21.91,9.09,31.2,22.81,35.51,76.86,60.95,108.1,73.29,13.9,5.49,29.15,6.61,43.69,3.14,22.73-5.43,42.3-8.56,54.34-10.19,8.63-1.17,16.88-4.28,24.13-9.11l32.3-21.53c16.5-9.55,18.08-20.97,17.65-26.69,1.61.84,3.33,1.71,5.15,2.58-14.93,57.97-31.42,170.3-36.08,203.05-.77,5.41,2.18,10.66,7.21,12.81-5.73,22.9-10.19,79.58-12.88,122.22-1.64,25.96-5.97,51.71-13.48,76.61-2.8,9.29-4.97,19.42-6.63,28.84-3.05,17.35,9.83,33.47,27.43,34.15,34.14,1.32,39.54,13.66,39.54,13.66,6.6,34.33,13.2,63.27,17.85,82.53,5.96,24.68,9.77,49.83,11.24,75.17,2.41,41.65.47,76.67-1.62,98.96-1.1,11.75-2.88,23.41-5.07,35-23.65,125.15,50.42,311.48,50.42,311.48,35.19,78.88,21.84,112.86,21.84,112.86-.74-2.22-2.39-3.43-4.32-4.03-5.1-1.59-10.46,1.76-11.56,6.99-10.9,51.97-31.86,88.64-45.08,107.82-5.01,7.26-10.73,13.98-16.91,20.28-24.69,25.15-28.19,52.57-26.68,71.39,1.1,13.74,10.89,25.23,24.26,28.6,137.48,34.66,139.76-43.19,138.8-59.46-.2-3.3-.26-6.61-.1-9.91,1.51-31.06,13.23-32.25,20.95-29.53,8.31,2.93,17.62,1.55,24.27-4.23,33.66-29.32-1.15-123-9.63-144.24-.98-2.46-2.12-4.86-3.36-7.2-.09-.16-.17-.33-.26-.49-8.41-16.1-12.57-34.07-12.64-52.23-.2-58.04-4.39-127.82-7.54-172.39-1.62-22.98-.54-46.05,2.75-68.85,4.51-31.32-.79-70.47-6.24-98.57-4.46-22.97-2.46-46.7,5.52-68.7,12.63-34.83,14.11-62.02,13.1-78.79-1.02-17.04-1.28-34.11-.65-51.17,1.2-32.49-.95-53.96-.95-53.96,15.25,0,26.15-6.88,32.91-13.13,5.06-4.68,8.69-10.69,10.54-17.33,16.02-57.58,16.02-133.38,16.02-133.38,2.83,10.76,8.83,19.4,14.43,25.56,8.11,8.93,12.93,20.35,13.77,32.38l3.13,45.04c.76,10.97,9.27,19.79,20.2,21.03,16.18,1.83,28.57,7.05,28.57,7.05,2.78,3.79,5.35,6.85,7.68,9.31,18.62,19.69,34.24,42.04,45.65,66.62,19.86,42.76,26.41,74.56,26.41,74.56,6.87,41.68,14.37,73.54,19.92,94.31,3.79,14.18,9.38,27.8,16.36,40.71,9.8,18.13,8.98,31.23,8.98,31.23-9.06,82.36.33,127.83,7.29,148.55,4.06,12.07,6.46,24.64,7.02,37.36,2.63,59.38,6,106.09,7.69,127.6.54,6.89,1.34,13.76,2.24,20.61,6.86,51.94-9.68,101.55-9.68,101.55-3.33-.67-6.54,1.59-7.04,4.95-10.63,70.55,2.26,104.31,14.57,120.12,6.02,7.74,15.94,11.28,25.54,9.29,17.97-3.73,17.88,29.73,16.57,47.69-.66,9.14,1.06,18.32,5.06,26.57,29.4,60.51,97.5,44.9,131.03,32.63,13.72-5.02,23.25-17.54,24.53-32.09,4.11-46.65-28.23-78.09-28.23-78.09-38.64-34.67-48.16-85.53-50.35-103.03-.77-6.18-2.79-12.15-6.09-17.43-11.3-18.08-21.23-4.54-21.23-4.54-2.2-4.41-2.91-10.57-3.02-15.98-.17-8.24-1.43-16.41-3.57-24.37-6.37-23.69-1.91-39.74-1.91-39.74,26.7-98.3,38.83-192.95,38.83-192.95,14.92-81.62-1.9-158.17-12.35-194.29-3.67-12.69-5.48-25.85-5.45-39.06,0-.24,0-.49,0-.73-.04-10.73-2.26-21.32-6.28-31.27-8.79-21.75-12.07-42.66-13.21-57.55-.81-10.57-.25-21.21,1.67-31.64,14.28-77.44-8.07-133.31-8.07-133.31l4.44-3.7c1.79-1.49,2.8-3.74,2.7-6.07-6.56-162.06-48.4-288.76-48.4-288.76l5.11-1.7c3.31-1.1,5.25-4.51,4.52-7.92-55.14-260.24-15.7-526.76-15.7-526.76,13.45,17.04,22.93,32.75,26.96,39.8,1.41,2.47,3.86,4.18,6.67,4.64l2.78.46c10.82,15.15,21.64,36.73,28.64,51.74,4.91,10.53,7.87,21.84,8.82,33.42,5.77,70.32,28.75,192.26,37.13,235.36,1.52,7.83,3.25,15.61,5.03,23.39,8.86,38.85,4.8,78,.92,100.48-1.83,10.61-5.37,20.86-10.58,30.29-20.65,37.38-20.8,60.98-20.37,67.29.18,2.7.37,5.4.47,8.1.96,24.18-.08,46.09-1.14,60.36-.64,8.6-2.19,17.1-4.43,25.43-6.38,23.8,12.55,15.82,12.55,15.82-16.46,7.16-18.57,13.89-17.53,18.21.68,2.83,3.33,4.75,6.23,4.58,11.62-.68,21.78,1.58,28.67,3.8,6.81,2.2,14.11,2.36,20.98.37l22.05-6.38c8.04-2.33,14.64-8.1,18.04-15.75.35-.79.69-1.56,1.02-2.31,4.88-11.18,8.14-22.98,10.1-35.02,1.68-10.34,5.08-18.29,8.06-23.66,3.73-6.72,5.71-14.28,5.59-21.97-.64-41.69-8.56-72.35-8.56-72.35-4.52-15.82-2.96-32.56-1.13-43ZM2895.34,1065.52s-6.07-24.27,13.35-53.4c0,0,35.19,19.42,57.04,10.92,0,0,27.91-16.99,41.26-59.46,0,0,8.49-26.7,44.9-53.4,0,0,27.91,52.18,40.05,155.33,0,0-89.22-90.26-196.6,0ZM3738.76,1649.24s-10.92,0-16.99-7.28c0,0,3.64-19.42,0-38.83,0,0,14.56-3.64,16.99,10.92,0,0,8.49,16.99,0,35.19Z"/>
</svg>