<?xml version="1.0" encoding="UTF-8"?>
<svg id="uuid-a215a700-d528-4c9b-8f13-fb11061cedc8" data-name="Ebene 1" xmlns="http://www.w3.org/2000/svg" viewBox="0 0 406 306" height="400px">
  <defs>
    <style>
      .uuid-2ff3685e-6e3a-480c-9b64-592c5ed39159 {
        fill: #1e3a8a;
      }
    </style>
  </defs>
  <path d="M252.01,104.65c0-3.93-3.18-7.11-7.11-7.11-.64,0-1.26.09-1.85.25v-5.53c0-23.52-12.79-38.82-40.05-38.82s-40.05,15.31-40.05,38.82v5.53c-.59-.16-1.21-.25-1.85-.25-3.93,0-7.11,3.18-7.11,7.11,0,3.37,4.17,15.37,9.21,18.68,2.36,21.44,21.53,38.17,39.8,38.17s37.54-16.73,39.81-38.17c5.04-3.32,9.2-15.3,9.2-18.67Z"/>
  <path d="M283.43,229.42c0,23.46-37.15,23.14-80.43,23.14s-80.43.32-80.43-23.14,9.01-40.27,17.89-46.92c17.8-13.35,40.7-19.21,40.7-19.21l10.61,25.58,8.3-15.72-4.59-7.29c.1.06,3.23,1.19,7.52,1.19s7.43-1.13,7.52-1.19l-4.59,7.29,8.3,15.72,10.61-25.58s22.89,5.86,40.7,19.21c8.88,6.66,17.89,24.1,17.89,46.92Z"/>
  <path class="uuid-2ff3685e-6e3a-480c-9b64-592c5ed39159" d="M151.84,113.44c-1.42,3.04-3.27,5.94-5.28,7.26-1.98,18.76-18.19,33.38-34.82,33.38s-32.75-14.63-34.81-33.38c-4.41-2.89-8.05-13.38-8.05-16.33,0-3.44,2.78-6.22,6.22-6.22.56,0,1.1.08,1.62.21v-4.83c0-20.57,11.18-33.95,35.02-33.95s35.02,13.39,35.02,33.95v4.83c.52-.14,1.06-.21,1.62-.21,1.04,0,2.03.26,2.89.71-1,1.7-1.58,3.67-1.58,5.78,0,2.34,1.02,5.83,2.14,8.79Z"/>
  <path class="uuid-2ff3685e-6e3a-480c-9b64-592c5ed39159" d="M158.32,167.12c-6.58,3.03-13.81,6.98-20.43,11.94-9.76,7.32-19.61,25.73-19.61,50.36,0,1.5.13,2.93.38,4.31-2.28,0-4.59,0-6.92,0-37.85,0-70.33.28-70.33-20.24s7.88-35.21,15.65-41.04c15.57-11.67,35.59-16.8,35.59-16.8l9.28,22.37,7.26-13.75-4.02-6.38c.09.05,2.83,1.04,6.58,1.04s6.5-.99,6.58-1.04l-4.02,6.38,7.26,13.75,9.27-22.37s13.86,3.55,27.48,11.46Z"/>
  <path class="uuid-2ff3685e-6e3a-480c-9b64-592c5ed39159" d="M254.16,113.44c1.42,3.04,3.27,5.94,5.28,7.26,1.98,18.76,18.19,33.38,34.82,33.38,15.98,0,32.75-14.63,34.81-33.38,4.41-2.89,8.05-13.38,8.05-16.33,0-3.44-2.78-6.22-6.22-6.22-.56,0-1.1.08-1.62.21v-4.83c0-20.57-11.18-33.95-35.02-33.95-23.84,0-35.02,13.39-35.02,33.95v4.83c-.52-.14-1.06-.21-1.62-.21-1.04,0-2.03.26-2.89.71,1,1.7,1.58,3.67,1.58,5.78,0,2.34-1.02,5.83-2.14,8.79Z"/>
  <path class="uuid-2ff3685e-6e3a-480c-9b64-592c5ed39159" d="M247.68,167.12c6.58,3.03,13.81,6.98,20.43,11.94,9.76,7.32,19.61,25.73,19.61,50.36,0,1.5-.13,2.93-.38,4.31,2.28,0,4.59,0,6.92,0,37.85,0,70.33.28,70.33-20.24,0-19.96-7.88-35.21-15.65-41.04-15.57-11.67-35.59-16.8-35.59-16.8l-9.28,22.37-7.26-13.75,4.02-6.38c-.09.05-2.83,1.04-6.58,1.04s-6.5-.99-6.58-1.04l4.02,6.38-7.26,13.75-9.27-22.37s-13.86,3.55-27.48,11.46Z"/>
</svg>