<?xml version="1.0" encoding="UTF-8"?>
<svg id="uuid-698c3b75-99ee-46de-acb5-8a22b5a3a354" data-name="Ebene 1" xmlns="http://www.w3.org/2000/svg" viewBox="0 0 189.74 50.8">
  <defs>
    <style>
      .uuid-dad4af6a-9fed-4f69-8a78-6db5055e5d18 {
        fill: #1d1d1b;
      }
    </style>
  </defs>
  <g>
    <path class="uuid-dad4af6a-9fed-4f69-8a78-6db5055e5d18" d="M42.25,23.77v-7.36h.84c.09,0,.17.02.23.06.06.04.1.1.12.18l.11.51c.23-.26.49-.46.79-.62.3-.16.65-.24,1.05-.24.31,0,.6.06.85.19.26.13.48.31.67.55.19.24.33.54.43.89.1.35.15.75.15,1.21,0,.41-.06.8-.17,1.15-.11.35-.28.66-.49.92s-.47.46-.77.61c-.3.15-.64.22-1.01.22-.32,0-.6-.05-.82-.14-.22-.1-.43-.23-.6-.4v2.27h-1.37ZM44.91,17.37c-.29,0-.53.06-.73.18-.2.12-.39.28-.56.49v2.49c.16.19.33.32.51.39.18.07.38.11.59.11s.4-.04.56-.11c.17-.08.31-.19.43-.35.12-.15.21-.35.27-.59s.09-.51.09-.84-.03-.6-.08-.82c-.05-.23-.13-.41-.23-.55-.1-.14-.22-.24-.36-.31s-.3-.1-.49-.1Z"/>
    <path class="uuid-dad4af6a-9fed-4f69-8a78-6db5055e5d18" d="M50.89,16.33c.36,0,.69.06.99.17.3.11.56.27.78.49.22.21.39.48.51.79.12.31.18.67.18,1.07,0,.1,0,.19-.01.25,0,.07-.03.12-.05.16-.02.04-.06.06-.1.08-.04.02-.09.02-.16.02h-3.52c.04.57.2.99.47,1.25.27.27.64.4,1.09.4.22,0,.41-.02.58-.08.16-.05.3-.11.42-.17.12-.06.23-.12.32-.17.09-.05.18-.08.26-.08.06,0,.1.01.14.03.04.02.08.05.11.09l.4.49c-.15.17-.32.32-.51.44s-.39.21-.59.28c-.21.07-.41.12-.63.15-.21.03-.42.04-.62.04-.4,0-.77-.06-1.11-.19s-.64-.32-.89-.57c-.25-.25-.45-.56-.59-.93s-.22-.8-.22-1.28c0-.38.06-.73.19-1.07.13-.33.31-.62.54-.87.24-.25.52-.44.86-.59.34-.14.72-.22,1.15-.22ZM50.92,17.28c-.4,0-.71.11-.94.33s-.37.53-.43.94h2.58c0-.17-.02-.34-.07-.49-.05-.15-.12-.29-.22-.4-.1-.12-.23-.21-.38-.27-.15-.07-.33-.1-.53-.1Z"/>
    <path class="uuid-dad4af6a-9fed-4f69-8a78-6db5055e5d18" d="M54.47,23.77v-7.36h.84c.09,0,.17.02.23.06.06.04.1.1.12.18l.11.51c.23-.26.49-.46.79-.62.3-.16.65-.24,1.05-.24.31,0,.6.06.85.19.26.13.48.31.67.55.19.24.33.54.43.89.1.35.15.75.15,1.21,0,.41-.06.8-.17,1.15-.11.35-.28.66-.49.92s-.47.46-.77.61c-.3.15-.64.22-1.01.22-.32,0-.6-.05-.82-.14-.22-.1-.43-.23-.6-.4v2.27h-1.37ZM57.14,17.37c-.29,0-.53.06-.73.18-.2.12-.39.28-.56.49v2.49c.16.19.33.32.51.39.18.07.38.11.59.11s.4-.04.56-.11c.17-.08.31-.19.43-.35.12-.15.21-.35.27-.59s.09-.51.09-.84-.03-.6-.08-.82c-.05-.23-.13-.41-.23-.55-.1-.14-.22-.24-.36-.31s-.3-.1-.49-.1Z"/>
    <path class="uuid-dad4af6a-9fed-4f69-8a78-6db5055e5d18" d="M62.22,13.93v8.03h-1.37v-8.03h1.37Z"/>
    <path class="uuid-dad4af6a-9fed-4f69-8a78-6db5055e5d18" d="M65.44,14.8c0,.12-.02.22-.07.32-.05.1-.11.19-.19.27-.08.08-.17.14-.28.18s-.22.07-.34.07-.23-.02-.34-.07c-.11-.04-.2-.11-.27-.18s-.14-.16-.19-.27c-.05-.1-.07-.21-.07-.32s.02-.23.07-.34c.05-.1.11-.19.19-.27s.17-.14.27-.18c.11-.04.22-.07.34-.07s.24.02.34.07.2.11.28.18c.08.08.14.17.19.27.05.1.07.22.07.34ZM65.23,16.41v5.55h-1.37v-5.55h1.37Z"/>
    <path class="uuid-dad4af6a-9fed-4f69-8a78-6db5055e5d18" d="M69.14,16.33c.36,0,.69.06.99.17.3.11.56.27.78.49.22.21.39.48.51.79.12.31.18.67.18,1.07,0,.1,0,.19-.01.25,0,.07-.03.12-.05.16-.02.04-.06.06-.1.08-.04.02-.09.02-.16.02h-3.52c.04.57.2.99.47,1.25.27.27.64.4,1.09.4.22,0,.41-.02.58-.08.16-.05.3-.11.42-.17.12-.06.23-.12.32-.17.09-.05.18-.08.26-.08.06,0,.1.01.14.03.04.02.08.05.11.09l.4.49c-.15.17-.32.32-.51.44s-.39.21-.59.28c-.21.07-.41.12-.63.15-.21.03-.42.04-.62.04-.4,0-.77-.06-1.11-.19s-.64-.32-.89-.57c-.25-.25-.45-.56-.59-.93s-.22-.8-.22-1.28c0-.38.06-.73.19-1.07.13-.33.31-.62.54-.87.24-.25.52-.44.86-.59.34-.14.72-.22,1.15-.22ZM69.17,17.28c-.4,0-.71.11-.94.33s-.37.53-.43.94h2.58c0-.17-.02-.34-.07-.49-.05-.15-.12-.29-.22-.4-.1-.12-.23-.21-.38-.27-.15-.07-.33-.1-.53-.1Z"/>
    <path class="uuid-dad4af6a-9fed-4f69-8a78-6db5055e5d18" d="M76.11,17.5c-.04.06-.08.1-.12.12-.04.02-.09.04-.16.04-.07,0-.14-.02-.21-.05-.08-.04-.16-.08-.26-.12-.1-.04-.21-.09-.34-.12-.13-.04-.28-.05-.45-.05-.27,0-.48.06-.64.17s-.23.26-.23.44c0,.12.04.22.12.3.08.08.19.15.32.21.13.06.28.12.45.16.17.05.34.1.51.16s.34.12.51.2c.17.07.32.17.45.28.13.11.24.25.32.41s.12.35.12.57c0,.27-.05.51-.15.74-.1.23-.25.42-.44.58-.19.16-.43.29-.71.38-.28.09-.61.14-.98.14-.2,0-.39-.02-.58-.05s-.37-.08-.54-.14c-.17-.06-.33-.13-.48-.22s-.27-.17-.39-.27l.32-.51c.04-.06.09-.11.14-.14.06-.03.13-.05.21-.05s.17.02.24.07c.08.05.16.1.26.15.1.05.22.1.35.15s.31.07.51.07c.16,0,.3-.02.42-.06.12-.04.21-.09.29-.15.08-.06.13-.13.17-.21.04-.08.05-.16.05-.25,0-.13-.04-.24-.12-.32-.08-.08-.19-.15-.32-.22-.13-.06-.28-.12-.45-.16-.17-.05-.34-.1-.52-.16-.18-.06-.35-.12-.52-.2s-.32-.18-.45-.29c-.13-.12-.24-.26-.32-.44-.08-.17-.12-.38-.12-.63,0-.23.05-.44.14-.65.09-.21.23-.38.41-.54s.4-.28.67-.37.58-.14.93-.14c.39,0,.75.06,1.07.19s.59.29.81.5l-.31.48Z"/>
    <path class="uuid-dad4af6a-9fed-4f69-8a78-6db5055e5d18" d="M83.73,17.59c-.04.05-.08.09-.12.12-.04.03-.1.04-.17.04-.07,0-.14-.02-.21-.06s-.15-.09-.24-.14c-.09-.05-.2-.1-.33-.14-.13-.04-.29-.06-.48-.06-.24,0-.45.04-.63.13-.18.08-.33.21-.45.37-.12.16-.21.35-.27.58-.06.23-.09.48-.09.77s.03.56.1.79c.06.23.16.42.28.58.12.16.27.28.44.36.17.08.37.12.59.12s.4-.03.53-.08.25-.11.34-.17c.09-.06.17-.12.24-.17s.15-.08.23-.08c.11,0,.19.04.25.12l.39.49c-.15.17-.32.32-.49.44-.18.12-.36.21-.55.28s-.39.12-.59.15c-.2.03-.41.04-.61.04-.35,0-.68-.06-.99-.19-.31-.13-.58-.31-.81-.56-.23-.25-.42-.54-.55-.9-.14-.35-.2-.76-.2-1.21,0-.41.06-.79.18-1.13s.3-.65.53-.9c.23-.25.52-.45.87-.6.34-.14.74-.22,1.19-.22s.8.07,1.12.2.61.32.86.57l-.36.49Z"/>
    <path class="uuid-dad4af6a-9fed-4f69-8a78-6db5055e5d18" d="M87.46,16.33c.43,0,.81.07,1.16.2s.64.32.89.57c.24.25.43.54.57.9.13.35.2.75.2,1.18s-.07.84-.2,1.19c-.13.35-.32.65-.57.9-.24.25-.54.44-.89.57s-.73.2-1.16.2-.81-.07-1.16-.2-.65-.32-.89-.57c-.25-.25-.44-.55-.57-.9-.14-.35-.2-.75-.2-1.19s.07-.83.2-1.18c.14-.35.33-.65.57-.9s.54-.43.89-.57.74-.2,1.16-.2ZM87.46,21.02c.47,0,.83-.15,1.05-.46s.34-.76.34-1.36-.11-1.05-.34-1.37c-.23-.31-.58-.47-1.05-.47s-.84.16-1.07.47c-.23.32-.34.77-.34,1.37s.11,1.05.34,1.36c.23.31.59.47,1.07.47Z"/>
    <path class="uuid-dad4af6a-9fed-4f69-8a78-6db5055e5d18" d="M91.35,21.96v-5.55h.84c.18,0,.29.08.35.24l.09.44c.11-.12.24-.22.36-.31.13-.09.26-.17.41-.24.14-.07.3-.12.46-.16s.34-.05.53-.05c.31,0,.59.05.83.15s.44.25.6.43.28.41.37.67.12.54.12.85v3.53h-1.37v-3.53c0-.34-.08-.6-.24-.79s-.4-.28-.73-.28c-.24,0-.46.05-.67.16-.21.1-.4.25-.59.43v4.01h-1.37Z"/>
    <path class="uuid-dad4af6a-9fed-4f69-8a78-6db5055e5d18" d="M101.05,17.5c-.04.06-.08.1-.12.12-.04.02-.09.04-.16.04-.07,0-.14-.02-.21-.05-.08-.04-.16-.08-.26-.12-.1-.04-.21-.09-.34-.12-.13-.04-.28-.05-.45-.05-.27,0-.48.06-.64.17s-.23.26-.23.44c0,.12.04.22.12.3.08.08.19.15.32.21.13.06.28.12.45.16.17.05.34.1.51.16.17.06.34.12.51.2.17.07.32.17.45.28.13.11.24.25.32.41.08.16.12.35.12.57,0,.27-.05.51-.15.74-.1.23-.25.42-.44.58s-.43.29-.71.38c-.28.09-.61.14-.98.14-.2,0-.39-.02-.58-.05s-.37-.08-.54-.14c-.17-.06-.33-.13-.48-.22s-.27-.17-.39-.27l.32-.51c.04-.06.09-.11.14-.14.06-.03.13-.05.21-.05s.17.02.24.07c.08.05.16.1.26.15.1.05.22.1.35.15s.31.07.51.07c.16,0,.3-.02.42-.06.12-.04.21-.09.29-.15.08-.06.13-.13.17-.21.04-.08.05-.16.05-.25,0-.13-.04-.24-.12-.32-.08-.08-.19-.15-.32-.22-.13-.06-.28-.12-.45-.16-.17-.05-.34-.1-.52-.16-.18-.06-.35-.12-.52-.2s-.32-.18-.45-.29c-.13-.12-.24-.26-.32-.44-.08-.17-.12-.38-.12-.63,0-.23.05-.44.14-.65.09-.21.23-.38.41-.54s.4-.28.67-.37.58-.14.93-.14c.39,0,.75.06,1.07.19s.59.29.81.5l-.31.48Z"/>
    <path class="uuid-dad4af6a-9fed-4f69-8a78-6db5055e5d18" d="M103.78,16.41v3.52c0,.34.08.6.24.79s.4.28.72.28c.24,0,.46-.05.67-.15.21-.1.4-.24.59-.42v-4.01h1.37v5.55h-.84c-.18,0-.29-.08-.35-.24l-.09-.44c-.12.12-.24.22-.37.32-.13.1-.26.18-.4.24-.14.07-.3.12-.46.16-.17.04-.34.06-.53.06-.31,0-.59-.05-.83-.15-.24-.1-.44-.25-.6-.44-.16-.19-.29-.41-.37-.67-.08-.26-.13-.54-.13-.85v-3.52h1.37Z"/>
    <path class="uuid-dad4af6a-9fed-4f69-8a78-6db5055e5d18" d="M110.3,13.93v8.03h-1.37v-8.03h1.37Z"/>
    <path class="uuid-dad4af6a-9fed-4f69-8a78-6db5055e5d18" d="M113.73,22.05c-.49,0-.87-.14-1.14-.41-.27-.27-.4-.65-.4-1.13v-3.1h-.58c-.07,0-.14-.02-.19-.07s-.08-.12-.08-.21v-.53l.92-.15.29-1.51c.01-.07.05-.13.1-.17.05-.04.12-.06.2-.06h.71v1.75h1.5v.95h-1.5v3.01c0,.17.04.31.13.41.09.1.21.15.36.15.08,0,.16-.01.21-.03.06-.02.11-.04.15-.06.04-.02.08-.04.11-.06.03-.02.07-.03.1-.03.04,0,.07.01.1.03.03.02.05.05.08.09l.41.65c-.2.16-.43.28-.69.37-.26.08-.53.12-.81.12Z"/>
    <path class="uuid-dad4af6a-9fed-4f69-8a78-6db5055e5d18" d="M122.07,20.89c.34,0,.63-.03.88-.09s.49-.14.71-.25v-1.42h-1.01c-.1,0-.17-.03-.23-.08-.05-.05-.08-.12-.08-.19v-.82h2.67v3.16c-.2.14-.42.27-.64.38-.22.11-.46.19-.71.26-.25.07-.52.12-.8.15s-.59.05-.92.05c-.58,0-1.12-.1-1.62-.3-.49-.2-.92-.47-1.28-.83-.36-.35-.64-.77-.84-1.27s-.3-1.03-.3-1.61.1-1.13.29-1.62.48-.91.84-1.27.8-.63,1.31-.82c.51-.19,1.09-.29,1.73-.29s1.22.09,1.7.28c.48.19.89.44,1.22.74l-.43.66c-.08.13-.2.2-.34.2-.09,0-.18-.03-.27-.09-.12-.07-.24-.14-.36-.21-.12-.07-.26-.13-.41-.18s-.32-.09-.51-.12c-.19-.03-.4-.05-.65-.05-.4,0-.75.06-1.08.19s-.59.32-.82.56c-.23.24-.4.53-.52.87-.12.34-.18.72-.18,1.14,0,.45.06.85.19,1.2s.31.65.54.89c.23.24.51.43.83.55s.67.19,1.06.19Z"/>
    <path class="uuid-dad4af6a-9fed-4f69-8a78-6db5055e5d18" d="M126.34,21.96v-5.55h.84c.18,0,.29.08.35.24l.09.41c.1-.11.21-.21.31-.3.11-.09.23-.17.35-.23s.26-.12.4-.15c.14-.04.3-.06.47-.06.36,0,.65.09.89.28.23.19.41.44.52.75.09-.18.2-.34.33-.47.13-.13.28-.24.44-.32.16-.08.33-.14.51-.18.18-.04.36-.06.54-.06.32,0,.59.05.84.14.24.09.45.23.62.41.17.18.29.4.38.66.09.26.13.56.13.89v3.53h-1.37v-3.53c0-.35-.08-.62-.24-.8-.16-.18-.39-.27-.7-.27-.14,0-.27.02-.39.07s-.23.11-.32.2c-.09.09-.16.2-.21.33-.05.13-.08.29-.08.46v3.53h-1.38v-3.53c0-.37-.08-.64-.23-.81-.15-.17-.38-.25-.68-.25-.2,0-.38.05-.55.14-.17.1-.33.23-.48.39v4.06h-1.37Z"/>
    <path class="uuid-dad4af6a-9fed-4f69-8a78-6db5055e5d18" d="M135.71,21.96v-8.03h1.37v3.17c.23-.23.48-.42.77-.56s.62-.21,1-.21c.31,0,.59.06.85.19.26.12.48.31.67.54s.33.53.43.88.15.75.15,1.21c0,.41-.06.8-.17,1.15-.12.35-.28.66-.49.92-.21.26-.47.46-.77.61-.3.15-.64.22-1.01.22-.17,0-.33-.02-.48-.05s-.28-.08-.39-.14c-.12-.06-.23-.14-.33-.22-.1-.09-.2-.19-.29-.29l-.06.37c-.02.09-.06.16-.11.2-.05.04-.13.06-.22.06h-.91ZM138.38,17.37c-.29,0-.53.06-.73.18-.2.12-.39.28-.56.49v2.49c.16.19.33.32.51.39.18.07.38.11.6.11s.39-.04.56-.11.31-.19.42-.35c.12-.15.21-.35.27-.59.06-.24.09-.51.09-.84s-.03-.6-.08-.82c-.05-.23-.13-.41-.23-.55-.1-.14-.22-.24-.36-.31s-.3-.1-.49-.1Z"/>
    <path class="uuid-dad4af6a-9fed-4f69-8a78-6db5055e5d18" d="M148.89,21.96h-1.51v-3.42h-3.77v3.42h-1.51v-7.82h1.51v3.36h3.77v-3.36h1.51v7.82Z"/>
    <path class="uuid-dad4af6a-9fed-4f69-8a78-6db5055e5d18" d="M46.63,28.54c-.04.08-.09.14-.14.17s-.12.05-.19.05-.16-.03-.25-.08-.2-.12-.33-.19-.27-.13-.44-.19c-.17-.06-.37-.08-.6-.08-.21,0-.39.02-.54.07s-.28.12-.39.2c-.11.09-.18.19-.24.31-.05.12-.08.25-.08.4,0,.18.05.34.16.46.11.12.25.23.42.31.17.09.37.16.59.23.22.07.45.14.68.22.23.08.46.17.68.27.22.1.42.23.59.39.17.16.31.35.42.58.11.23.16.5.16.83,0,.35-.06.68-.19.99-.12.31-.31.58-.54.81-.24.23-.53.41-.88.54-.34.13-.74.2-1.18.2-.26,0-.51-.02-.76-.07-.25-.05-.49-.12-.71-.21-.23-.09-.44-.2-.64-.32-.2-.13-.38-.27-.53-.42l.43-.7s.09-.09.15-.13.12-.05.19-.05c.09,0,.19.04.3.11.11.07.23.16.38.25s.32.17.52.25.44.11.71.11c.43,0,.76-.1.99-.29.23-.2.35-.48.35-.85,0-.21-.05-.37-.16-.5s-.25-.24-.42-.33c-.17-.09-.37-.16-.59-.22-.22-.06-.45-.13-.68-.2-.23-.07-.46-.16-.68-.26-.22-.1-.42-.23-.59-.39-.17-.16-.31-.37-.42-.61-.11-.24-.16-.54-.16-.9,0-.28.06-.56.17-.83.12-.27.29-.51.51-.72.22-.21.5-.38.83-.5.33-.13.7-.19,1.12-.19.47,0,.91.07,1.31.22.4.14.74.35,1.02.61l-.37.69Z"/>
    <path class="uuid-dad4af6a-9fed-4f69-8a78-6db5055e5d18" d="M48.21,36.75v-7.36h.84c.09,0,.17.02.23.06.06.04.1.1.12.18l.11.51c.23-.26.49-.46.79-.62s.65-.24,1.05-.24c.31,0,.6.06.85.19.26.13.48.31.67.55.19.24.33.54.43.89.1.35.15.75.15,1.21,0,.42-.06.8-.17,1.15-.11.35-.28.66-.49.92-.21.26-.47.46-.77.61-.3.15-.64.22-1.01.22-.32,0-.6-.05-.82-.14s-.43-.23-.6-.4v2.27h-1.37ZM50.88,30.34c-.29,0-.53.06-.73.18-.2.12-.39.28-.56.49v2.49c.16.19.33.32.51.39.18.07.38.11.59.11s.4-.04.56-.11c.17-.08.31-.19.43-.35.12-.15.21-.35.27-.59.06-.24.09-.51.09-.84s-.03-.6-.08-.82-.13-.41-.23-.55c-.1-.14-.22-.24-.36-.31-.14-.07-.3-.1-.49-.1Z"/>
    <path class="uuid-dad4af6a-9fed-4f69-8a78-6db5055e5d18" d="M56.93,29.3c.43,0,.81.07,1.16.2.35.13.64.32.89.57.24.25.43.54.57.9.13.35.2.75.2,1.18s-.07.84-.2,1.19c-.13.35-.32.65-.57.9-.24.25-.54.44-.89.57-.35.13-.73.2-1.16.2s-.81-.07-1.16-.2c-.35-.13-.65-.32-.89-.57s-.44-.55-.57-.9c-.14-.35-.2-.75-.2-1.19s.07-.83.2-1.18.33-.65.57-.9.54-.43.89-.57c.35-.13.74-.2,1.16-.2ZM56.93,33.99c.47,0,.83-.16,1.05-.46.23-.31.34-.76.34-1.36s-.11-1.05-.34-1.37-.58-.47-1.05-.47-.84.16-1.07.47c-.23.32-.34.77-.34,1.37s.11,1.05.34,1.36c.23.31.59.47,1.07.47Z"/>
    <path class="uuid-dad4af6a-9fed-4f69-8a78-6db5055e5d18" d="M60.81,34.94v-5.55h.81c.14,0,.24.02.29.08s.09.14.11.26l.08.67c.2-.34.44-.61.72-.81.27-.2.58-.3.92-.3.28,0,.52.06.7.19l-.18,1c-.01.07-.04.11-.07.14-.04.03-.09.04-.15.04-.06,0-.13-.01-.23-.04-.1-.02-.22-.04-.38-.04-.29,0-.53.08-.73.23-.2.15-.38.38-.52.67v3.46h-1.37Z"/>
    <path class="uuid-dad4af6a-9fed-4f69-8a78-6db5055e5d18" d="M67.23,35.02c-.49,0-.87-.14-1.14-.41-.27-.27-.4-.65-.4-1.13v-3.1h-.58c-.07,0-.14-.02-.19-.07s-.08-.12-.08-.21v-.53l.92-.15.29-1.51c.01-.07.05-.13.1-.17s.12-.06.2-.06h.71v1.75h1.5v.95h-1.5v3.01c0,.17.04.31.13.41s.21.15.36.15c.09,0,.16-.01.21-.03.06-.02.11-.04.15-.06.04-.02.08-.04.11-.06.03-.02.07-.03.1-.03.04,0,.07.01.1.03s.05.05.08.09l.41.65c-.2.16-.43.28-.69.37-.26.08-.53.12-.81.12Z"/>
    <path class="uuid-dad4af6a-9fed-4f69-8a78-6db5055e5d18" d="M73.04,30.47c-.04.06-.08.1-.12.12-.04.02-.09.04-.16.04-.07,0-.14-.02-.21-.05-.08-.04-.16-.08-.26-.12-.1-.04-.21-.08-.34-.12-.13-.04-.28-.05-.45-.05-.27,0-.48.06-.64.17-.16.11-.23.26-.23.44,0,.12.04.22.12.3.08.08.19.15.32.21.13.06.28.12.45.16.17.05.34.1.51.16s.34.12.51.2c.17.07.32.17.45.28.13.11.24.25.32.41.08.16.12.35.12.57,0,.27-.05.51-.15.74-.1.23-.25.42-.44.58-.19.16-.43.29-.71.38-.28.09-.61.14-.98.14-.2,0-.39-.02-.58-.05s-.37-.08-.54-.14-.33-.13-.48-.22-.27-.17-.39-.27l.32-.51c.04-.06.09-.11.14-.14.06-.03.13-.05.21-.05s.17.02.24.07c.08.05.16.1.26.15.1.05.22.1.35.15s.31.07.51.07c.16,0,.3-.02.42-.06.12-.04.21-.09.29-.15.08-.06.13-.13.17-.21.04-.08.05-.16.05-.25,0-.13-.04-.24-.12-.32-.08-.08-.19-.15-.32-.22s-.28-.12-.45-.17-.34-.1-.52-.16c-.18-.06-.35-.12-.52-.2-.17-.08-.32-.18-.45-.29-.13-.12-.24-.26-.32-.44s-.12-.38-.12-.63c0-.23.05-.44.14-.65.09-.21.23-.38.41-.54s.4-.28.67-.37.58-.14.93-.14c.39,0,.75.06,1.07.19s.59.29.81.5l-.31.48Z"/>
    <path class="uuid-dad4af6a-9fed-4f69-8a78-6db5055e5d18" d="M80.95,32.05c.05.12.11.25.16.38.05-.13.11-.26.16-.38.06-.13.11-.25.18-.36l2.38-4.33c.03-.05.06-.1.09-.13.03-.03.07-.06.11-.07.04-.01.08-.02.13-.03.05,0,.11,0,.17,0h1.13v7.82h-1.32v-5.05c0-.09,0-.2,0-.31,0-.11.01-.22.02-.34l-2.43,4.43c-.06.1-.13.18-.22.24s-.19.08-.31.08h-.21c-.12,0-.22-.03-.31-.08s-.16-.13-.22-.24l-2.46-4.45c.01.12.02.24.03.35,0,.11,0,.22,0,.32v5.05h-1.32v-7.82h1.13c.07,0,.12,0,.17,0,.05,0,.09.01.13.03.04.01.07.04.11.07.03.03.06.08.09.13l2.4,4.34c.06.12.12.24.18.36Z"/>
    <path class="uuid-dad4af6a-9fed-4f69-8a78-6db5055e5d18" d="M91.46,34.94h-.62c-.13,0-.23-.02-.31-.06-.07-.04-.13-.12-.17-.23l-.12-.39c-.14.13-.29.24-.42.33-.14.09-.28.18-.43.24-.15.06-.31.11-.47.15-.17.03-.35.05-.56.05-.24,0-.46-.03-.67-.09s-.38-.16-.53-.28c-.15-.13-.26-.28-.34-.47-.08-.19-.12-.41-.12-.66,0-.21.06-.42.17-.62.11-.2.3-.39.56-.55.26-.17.61-.3,1.05-.41.44-.11.98-.16,1.63-.16v-.33c0-.37-.08-.65-.24-.83-.16-.18-.4-.27-.7-.27-.22,0-.41.03-.56.08-.15.05-.28.11-.39.17-.11.06-.21.12-.3.17-.09.05-.19.08-.31.08-.09,0-.17-.02-.24-.07-.07-.05-.12-.1-.16-.17l-.25-.43c.66-.58,1.45-.88,2.37-.88.33,0,.63.05.89.16s.48.25.66.44c.18.19.32.42.41.68.09.26.14.55.14.87v3.5ZM88.8,34.1c.14,0,.27-.01.39-.04s.23-.06.34-.11c.11-.05.21-.11.31-.18.1-.07.2-.16.3-.26v-.93c-.4,0-.73.03-1,.07s-.48.11-.65.19-.28.17-.35.27c-.07.1-.1.21-.1.33,0,.24.07.41.21.51s.33.15.56.15Z"/>
    <path class="uuid-dad4af6a-9fed-4f69-8a78-6db5055e5d18" d="M92.82,34.94v-5.55h.81c.14,0,.24.02.29.08s.09.14.11.26l.08.67c.2-.34.44-.61.72-.81.27-.2.58-.3.92-.3.28,0,.52.06.7.19l-.18,1c-.01.07-.04.11-.07.14-.04.03-.09.04-.15.04-.06,0-.13-.01-.23-.04-.1-.02-.22-.04-.38-.04-.29,0-.53.08-.73.23-.2.15-.38.38-.52.67v3.46h-1.37Z"/>
    <path class="uuid-dad4af6a-9fed-4f69-8a78-6db5055e5d18" d="M98.75,26.9v4.6h.26c.09,0,.16-.01.22-.04.05-.02.11-.07.17-.14l1.42-1.7c.06-.07.13-.13.2-.17.07-.04.16-.06.28-.06h1.26l-1.77,2.06c-.06.08-.13.14-.19.21s-.14.12-.22.17c.08.05.15.12.21.19.06.07.12.15.18.23l1.9,2.69h-1.24c-.11,0-.2-.02-.27-.05-.07-.04-.14-.1-.2-.18l-1.45-2.1c-.06-.08-.11-.14-.17-.16-.06-.02-.14-.04-.25-.04h-.31v2.54h-1.37v-8.03h1.37Z"/>
    <path class="uuid-dad4af6a-9fed-4f69-8a78-6db5055e5d18" d="M105.84,29.3c.36,0,.69.06.99.17.3.11.56.27.78.49.22.21.39.48.51.79s.18.67.18,1.07c0,.1,0,.19-.01.25,0,.07-.03.12-.05.16-.02.04-.06.07-.1.08-.04.02-.09.02-.16.02h-3.52c.04.57.2.99.47,1.25s.64.4,1.09.4c.22,0,.41-.02.58-.08s.3-.11.42-.17c.12-.06.23-.12.32-.17.09-.05.18-.08.26-.08.06,0,.1.01.14.03.04.02.08.05.11.09l.4.49c-.15.17-.32.32-.51.43-.19.12-.39.21-.59.28s-.42.12-.63.15c-.21.03-.42.04-.62.04-.4,0-.76-.06-1.11-.19s-.64-.32-.89-.57-.45-.56-.59-.93c-.14-.37-.22-.8-.22-1.28,0-.38.06-.73.19-1.07.13-.33.31-.62.54-.87s.52-.44.86-.59c.34-.14.72-.22,1.15-.22ZM105.87,30.26c-.4,0-.71.11-.94.33-.23.22-.37.53-.43.93h2.58c0-.17-.02-.34-.07-.49-.05-.15-.12-.29-.22-.4-.1-.12-.23-.21-.38-.27-.15-.07-.33-.1-.53-.1Z"/>
    <path class="uuid-dad4af6a-9fed-4f69-8a78-6db5055e5d18" d="M111.3,35.02c-.49,0-.87-.14-1.14-.41-.27-.27-.4-.65-.4-1.13v-3.1h-.58c-.07,0-.14-.02-.19-.07s-.08-.12-.08-.21v-.53l.92-.15.29-1.51c.01-.07.05-.13.1-.17s.12-.06.2-.06h.71v1.75h1.5v.95h-1.5v3.01c0,.17.04.31.13.41s.21.15.36.15c.09,0,.16-.01.21-.03.06-.02.11-.04.15-.06.04-.02.08-.04.11-.06s.07-.03.1-.03c.04,0,.07.01.1.03.03.02.05.05.08.09l.41.65c-.2.16-.43.28-.69.37-.26.08-.53.12-.81.12Z"/>
    <path class="uuid-dad4af6a-9fed-4f69-8a78-6db5055e5d18" d="M115.4,27.77c0,.12-.02.22-.07.32-.05.1-.11.19-.19.27-.08.08-.17.14-.28.18s-.22.07-.34.07-.23-.02-.34-.07-.2-.11-.28-.18c-.08-.08-.14-.16-.19-.27-.05-.1-.07-.21-.07-.32s.02-.23.07-.33c.05-.1.11-.19.19-.27.08-.08.17-.14.28-.18s.22-.07.34-.07.24.02.34.07.2.11.28.18c.08.08.14.17.19.27.05.1.07.22.07.33ZM115.19,29.39v5.55h-1.37v-5.55h1.37Z"/>
    <path class="uuid-dad4af6a-9fed-4f69-8a78-6db5055e5d18" d="M116.74,34.94v-5.55h.84c.18,0,.29.08.35.24l.09.44c.11-.12.24-.22.36-.31.13-.09.26-.17.41-.24s.29-.12.46-.16.34-.05.53-.05c.31,0,.59.05.83.15.24.1.44.25.6.43s.28.41.37.67c.08.26.12.54.12.85v3.53h-1.37v-3.53c0-.34-.08-.6-.24-.79s-.4-.28-.73-.28c-.24,0-.46.05-.67.16-.21.11-.4.25-.59.43v4.01h-1.37Z"/>
    <path class="uuid-dad4af6a-9fed-4f69-8a78-6db5055e5d18" d="M125.03,29.29c.24,0,.47.02.69.07.21.05.41.12.59.21h1.64v.5c0,.08-.02.15-.07.19-.04.05-.12.08-.23.1l-.51.09c.04.09.07.19.09.3.02.1.03.21.03.33,0,.27-.06.52-.17.74-.11.22-.27.41-.47.57-.2.15-.43.27-.71.36-.27.08-.57.13-.89.13-.21,0-.42-.02-.63-.06-.18.11-.27.22-.27.35,0,.11.05.19.16.25s.24.09.42.11c.17.02.37.03.59.03s.44,0,.67.03c.23.02.45.05.67.09s.41.12.59.21c.17.1.31.23.42.4.11.17.16.38.16.65,0,.25-.06.49-.19.72s-.3.44-.54.62-.52.33-.86.44-.73.17-1.17.17-.81-.04-1.13-.12c-.32-.08-.58-.19-.79-.32-.21-.14-.37-.29-.47-.47-.1-.18-.16-.36-.16-.55,0-.26.08-.48.25-.65s.39-.32.68-.42c-.14-.08-.25-.18-.34-.3-.08-.13-.13-.29-.13-.49,0-.08.01-.17.04-.26.03-.09.07-.17.14-.26s.14-.17.23-.25.2-.15.33-.21c-.29-.15-.52-.35-.68-.61s-.25-.55-.25-.89c0-.27.06-.52.17-.74s.27-.41.47-.57c.2-.16.44-.28.72-.36s.58-.12.9-.12ZM126.54,35.17c0-.11-.03-.2-.1-.27-.07-.07-.16-.12-.27-.16-.12-.04-.25-.07-.4-.09-.15-.02-.32-.03-.49-.03h-.53c-.18,0-.36-.02-.53-.06-.16.08-.28.18-.38.29-.09.11-.14.24-.14.39,0,.1.03.19.08.27.05.08.13.16.24.22.11.06.25.11.42.14s.39.05.64.05.48-.02.66-.06c.19-.04.34-.09.46-.16.12-.07.21-.15.26-.24s.08-.2.08-.31ZM125.03,32.03c.17,0,.32-.02.44-.07s.23-.11.31-.19c.08-.08.15-.17.19-.29.04-.11.06-.23.06-.37,0-.27-.08-.49-.25-.65-.17-.16-.42-.24-.76-.24s-.59.08-.76.24-.25.38-.25.65c0,.13.02.25.06.36.04.11.11.21.19.29s.19.14.32.19.28.07.44.07Z"/>
    <path class="uuid-dad4af6a-9fed-4f69-8a78-6db5055e5d18" d="M136.56,33.09c.08,0,.15.03.21.09l.59.62c-.33.39-.73.69-1.2.9-.48.21-1.05.31-1.71.31-.6,0-1.13-.1-1.61-.3-.48-.2-.88-.47-1.22-.83s-.6-.78-.78-1.27-.27-1.03-.27-1.61.1-1.12.3-1.61c.2-.49.48-.91.84-1.26.36-.35.8-.63,1.3-.83.51-.2,1.06-.29,1.68-.29s1.12.09,1.56.28.83.43,1.15.74l-.5.68s-.07.08-.11.11c-.05.03-.11.05-.19.05s-.17-.03-.26-.1c-.09-.06-.2-.13-.34-.21-.14-.08-.31-.15-.52-.21-.21-.06-.47-.1-.8-.1-.38,0-.73.06-1.04.19-.32.13-.59.31-.82.55s-.41.53-.53.87c-.13.34-.19.72-.19,1.15s.06.83.19,1.17c.13.34.3.63.52.87.22.23.48.41.77.54.3.12.61.19.96.19.2,0,.39-.01.55-.03s.32-.06.46-.1c.14-.05.27-.11.39-.18.12-.07.25-.17.37-.27.04-.03.08-.06.12-.08.04-.02.08-.03.13-.03Z"/>
    <path class="uuid-dad4af6a-9fed-4f69-8a78-6db5055e5d18" d="M140.84,29.3c.43,0,.81.07,1.16.2.35.13.64.32.89.57s.43.54.57.9c.13.35.2.75.2,1.18s-.07.84-.2,1.19c-.13.35-.32.65-.57.9s-.54.44-.89.57c-.35.13-.73.2-1.16.2s-.81-.07-1.16-.2c-.35-.13-.65-.32-.89-.57-.25-.25-.44-.55-.57-.9-.14-.35-.2-.75-.2-1.19s.07-.83.2-1.18c.13-.35.33-.65.57-.9.25-.25.54-.43.89-.57.35-.13.74-.2,1.16-.2ZM140.84,33.99c.47,0,.83-.16,1.05-.46.23-.31.34-.76.34-1.36s-.11-1.05-.34-1.37c-.23-.31-.58-.47-1.05-.47s-.84.16-1.07.47-.34.77-.34,1.37.12,1.05.34,1.36.58.47,1.07.47Z"/>
    <path class="uuid-dad4af6a-9fed-4f69-8a78-6db5055e5d18" d="M144.73,34.94v-5.55h.84c.18,0,.29.08.35.24l.09.44c.11-.12.24-.22.36-.31.13-.09.26-.17.41-.24s.29-.12.46-.16.34-.05.53-.05c.31,0,.59.05.83.15.24.1.44.25.6.43s.28.41.37.67c.08.26.12.54.12.85v3.53h-1.37v-3.53c0-.34-.08-.6-.24-.79s-.4-.28-.73-.28c-.24,0-.46.05-.67.16-.21.11-.4.25-.59.43v4.01h-1.37Z"/>
    <path class="uuid-dad4af6a-9fed-4f69-8a78-6db5055e5d18" d="M154.43,30.47c-.04.06-.08.1-.12.12s-.09.04-.16.04c-.07,0-.14-.02-.21-.05-.08-.04-.16-.08-.26-.12-.1-.04-.21-.08-.34-.12s-.28-.05-.45-.05c-.27,0-.48.06-.64.17-.16.11-.23.26-.23.44,0,.12.04.22.12.3s.19.15.32.21c.13.06.28.12.45.16.17.05.34.1.51.16.17.06.34.12.51.2.17.07.32.17.45.28.13.11.24.25.32.41.08.16.12.35.12.57,0,.27-.05.51-.15.74-.1.23-.25.42-.44.58-.19.16-.43.29-.71.38s-.61.14-.98.14c-.2,0-.39-.02-.58-.05-.19-.03-.37-.08-.54-.14-.17-.06-.33-.13-.48-.22s-.28-.17-.39-.27l.32-.51c.04-.06.09-.11.14-.14.06-.03.13-.05.21-.05s.17.02.24.07c.08.05.16.1.26.15.1.05.22.1.35.15.14.05.31.07.51.07.16,0,.3-.02.42-.06.12-.04.21-.09.29-.15s.13-.13.17-.21c.04-.08.05-.16.05-.25,0-.13-.04-.24-.12-.32-.08-.08-.19-.15-.32-.22-.13-.06-.28-.12-.45-.17-.17-.05-.34-.1-.52-.16s-.35-.12-.52-.2c-.17-.08-.32-.18-.45-.29-.13-.12-.24-.26-.32-.44-.08-.17-.12-.38-.12-.63,0-.23.05-.44.14-.65.09-.21.23-.38.41-.54s.4-.28.67-.37.58-.14.93-.14c.39,0,.75.06,1.07.19s.59.29.81.5l-.31.48Z"/>
    <path class="uuid-dad4af6a-9fed-4f69-8a78-6db5055e5d18" d="M157.16,29.39v3.52c0,.34.08.6.24.79s.4.28.73.28c.24,0,.46-.05.67-.15.21-.1.4-.24.59-.42v-4.01h1.37v5.55h-.84c-.18,0-.29-.08-.35-.24l-.09-.44c-.12.12-.24.22-.37.32-.13.09-.26.18-.4.24-.14.07-.3.12-.46.16-.17.04-.34.06-.53.06-.31,0-.59-.05-.83-.15-.24-.1-.44-.25-.6-.44s-.29-.41-.37-.67-.12-.54-.12-.85v-3.52h1.37Z"/>
    <path class="uuid-dad4af6a-9fed-4f69-8a78-6db5055e5d18" d="M163.69,26.9v8.03h-1.37v-8.03h1.37Z"/>
    <path class="uuid-dad4af6a-9fed-4f69-8a78-6db5055e5d18" d="M167.11,35.02c-.49,0-.87-.14-1.14-.41-.27-.27-.4-.65-.4-1.13v-3.1h-.58c-.07,0-.14-.02-.19-.07s-.08-.12-.08-.21v-.53l.92-.15.29-1.51c.01-.07.05-.13.1-.17s.12-.06.2-.06h.71v1.75h1.5v.95h-1.5v3.01c0,.17.04.31.13.41s.21.15.36.15c.08,0,.16-.01.21-.03s.11-.04.15-.06c.04-.02.08-.04.11-.06.03-.02.07-.03.1-.03.04,0,.07.01.1.03.03.02.05.05.08.09l.41.65c-.2.16-.43.28-.69.37s-.53.12-.81.12Z"/>
    <path class="uuid-dad4af6a-9fed-4f69-8a78-6db5055e5d18" d="M174.01,34.94h-.62c-.13,0-.23-.02-.31-.06-.07-.04-.13-.12-.17-.23l-.12-.39c-.14.13-.29.24-.42.33-.14.09-.28.18-.43.24-.15.06-.31.11-.47.15-.17.03-.35.05-.56.05-.24,0-.46-.03-.67-.09-.2-.06-.38-.16-.53-.28-.15-.13-.26-.28-.34-.47-.08-.19-.12-.41-.12-.66,0-.21.06-.42.17-.62.11-.2.3-.39.56-.55.26-.17.61-.3,1.05-.41.44-.11.98-.16,1.63-.16v-.33c0-.37-.08-.65-.24-.83-.16-.18-.4-.27-.7-.27-.22,0-.41.03-.56.08-.15.05-.28.11-.39.17-.11.06-.21.12-.3.17-.09.05-.19.08-.31.08-.09,0-.17-.02-.24-.07s-.12-.1-.16-.17l-.25-.43c.66-.58,1.45-.88,2.37-.88.33,0,.63.05.89.16.26.11.48.25.67.44.18.19.32.42.41.68.09.26.14.55.14.87v3.5ZM171.34,34.1c.14,0,.27-.01.39-.04.12-.02.23-.06.34-.11.11-.05.21-.11.31-.18.1-.07.2-.16.3-.26v-.93c-.4,0-.73.03-1,.07s-.48.11-.65.19-.28.17-.35.27-.1.21-.1.33c0,.24.07.41.21.51s.33.15.56.15Z"/>
    <path class="uuid-dad4af6a-9fed-4f69-8a78-6db5055e5d18" d="M175.36,34.94v-5.55h.84c.18,0,.29.08.35.24l.09.44c.12-.12.24-.22.36-.31s.26-.17.41-.24.3-.12.46-.16.34-.05.53-.05c.31,0,.59.05.83.15.24.1.44.25.6.43s.28.41.37.67c.08.26.12.54.12.85v3.53h-1.37v-3.53c0-.34-.08-.6-.24-.79s-.4-.28-.73-.28c-.24,0-.46.05-.67.16-.21.11-.4.25-.59.43v4.01h-1.37Z"/>
    <path class="uuid-dad4af6a-9fed-4f69-8a78-6db5055e5d18" d="M183.55,35.02c-.49,0-.87-.14-1.14-.41-.27-.27-.4-.65-.4-1.13v-3.1h-.58c-.07,0-.14-.02-.19-.07s-.08-.12-.08-.21v-.53l.92-.15.29-1.51c.01-.07.05-.13.1-.17s.12-.06.2-.06h.71v1.75h1.5v.95h-1.5v3.01c0,.17.04.31.13.41s.21.15.36.15c.08,0,.16-.01.21-.03s.11-.04.15-.06c.04-.02.08-.04.11-.06.03-.02.07-.03.1-.03.04,0,.07.01.1.03.03.02.05.05.08.09l.41.65c-.2.16-.43.28-.69.37s-.53.12-.81.12Z"/>
    <path class="uuid-dad4af6a-9fed-4f69-8a78-6db5055e5d18" d="M189.36,30.47c-.04.06-.08.1-.12.12-.04.02-.09.04-.16.04-.07,0-.14-.02-.21-.05s-.16-.08-.26-.12c-.1-.04-.21-.08-.34-.12-.13-.04-.28-.05-.45-.05-.27,0-.48.06-.64.17-.16.11-.23.26-.23.44,0,.12.04.22.12.3.08.08.18.15.32.21.13.06.28.12.45.16.17.05.34.1.51.16.17.06.34.12.51.2.17.07.32.17.45.28.13.11.24.25.32.41.08.16.12.35.12.57,0,.27-.05.51-.15.74-.1.23-.25.42-.44.58s-.43.29-.71.38c-.28.09-.61.14-.98.14-.2,0-.39-.02-.58-.05-.19-.03-.37-.08-.54-.14-.17-.06-.33-.13-.48-.22s-.27-.17-.39-.27l.32-.51c.04-.06.09-.11.14-.14.06-.03.13-.05.21-.05s.17.02.24.07.16.1.26.15c.1.05.22.1.35.15.13.05.31.07.51.07.16,0,.3-.02.42-.06.12-.04.21-.09.29-.15.08-.06.13-.13.17-.21.04-.08.05-.16.05-.25,0-.13-.04-.24-.12-.32-.08-.08-.19-.15-.32-.22-.13-.06-.28-.12-.45-.17-.17-.05-.34-.1-.52-.16-.18-.06-.35-.12-.52-.2-.17-.08-.32-.18-.45-.29-.13-.12-.24-.26-.32-.44-.08-.17-.12-.38-.12-.63,0-.23.05-.44.14-.65.09-.21.23-.38.41-.54s.4-.28.67-.37.58-.14.93-.14c.39,0,.75.06,1.07.19s.59.29.81.5l-.31.48Z"/>
  </g>
  <g>
    <path class="uuid-dad4af6a-9fed-4f69-8a78-6db5055e5d18" d="M15.76,0v10.04s-4.84,4.81-8.97,9.8c-2.5,3.02-1.67,10.58,1.58,12.93C8.36,32.77.16,30.39.02,21c0,0-.47-3.96,2.8-7.56C6.08,9.84,15.76,0,15.76,0"/>
    <path class="uuid-dad4af6a-9fed-4f69-8a78-6db5055e5d18" d="M15.76,50.8v-10.04s4.84-4.81,8.97-9.8c2.5-3.02,1.67-10.58-1.58-12.93,0,0,8.21,2.38,8.34,11.77,0,0,.47,3.96-2.8,7.56-3.26,3.6-12.94,13.44-12.94,13.44"/>
  </g>
</svg>