<?xml version="1.0" encoding="UTF-8"?>
<svg id="uuid-448ec416-86be-4e62-ac2c-fa72ef8c16b2" data-name="Ebene 1" xmlns="http://www.w3.org/2000/svg" viewBox="0 0 406 306" height="400px">
  <defs>
    <style>
      .uuid-8107a4bb-507c-4b22-a031-f99b0842b84f {
        fill: #1e3a8a;
      }
    </style>
  </defs>
  <path class="uuid-8107a4bb-507c-4b22-a031-f99b0842b84f" d="M161.48,32.34c.37-.05.75-.11,1.11.03,1.36.5,2.71,1.6,3.94,2.38,1.89,1.18,3.85,2.22,5.77,3.34,2.19,1.27,4.48,3.12,7.04,3.53,3.06.49,9.35-1.08,12.5-1.74,6.11-1.27,27.28-5.72,32.19-4.59.89.21,1.73.55,2.53,1,2.3,1.27,4.23,3.11,6.5,4.42,3.77,2.17,7.89,3.78,11.51,6.19,1.38.92,2.71,1.93,3.96,3.02,1.23,1.07,2.62,2.67,4.05,3.43.79.42,1.88.52,2.74.76,5.26,1.5,9.85,4.56,12.54,9.37.59-.02,1.21-.04,1.78-.21,2.43-.71,5.96-3.37,6.98-5.71.56-1.28.75-2.91,1.12-4.27,1.08-4.06,3.18-8.14,6.71-10.59,2.99-2.07,6.69-2.53,10.21-1.86,4.97.95,9.46,4.37,12.25,8.52,2.48,3.69,3.46,8.22,2.59,12.6-.67,3.34-2.22,6.66-5.09,8.59-1.01,2.1-1.05,6.35-2.45,7.89-.72.4-2.4-.36-3.21-.55-.29.66-.56,1.54-1.14,2-.23-.05-.45-.1-.66.02-.3.17-.48.39-.6.71-.03.09-.06.18-.09.27-.46.45-1.2.57-1.8.74-.94.94-1.69,2.35-3,2.82-1.11.4-2.05,0-3.05-.45,2.18,1.94,3.74,4.23,5.2,6.73,7.6,1.9,12.91,4.22,18.9,9.47,1.51-3.28,3.49-5.81,6.14-8.26,1.13-1.05,2.34-2.05,3.38-3.18,2.55-2.79,5.89-9.4,6.96-12.98-1.13-1.78-3.53-5.08-4.23-6.86-.48-1.24-.7-2.64-1.04-3.92-.36-1.38-.83-2.74-1.27-4.09.15-.35.18-.43.55-.59.57-.24,1.63-.04,2.18.18,1.64.66,2.48,2.86,3.18,4.36,1.06-1.1,1.93-2.51,2.6-3.88,1.39-2.83,3.39-9.92,6.27-11.18.21.03.29,0,.44.18.79.97.29,2.71.17,3.83.7-1.31,1.75-3.6,3.06-4.38.31-.18.66-.28,1.01-.15.32.11.68.45.82.77.38.84-.16,2.05-.42,2.87.41-.45.89-1.07,1.54-1.17.36-.06.48.03.76.22.37.67.39,1.4.32,2.14-.24,2.33-1.83,6.41-2.48,8.93,1.11-1.58,1.58-3.66,2.72-5.15.27-.35.51-.51.94-.59.36.21.42.36.62.71.06.71-.06,1.41-.22,2.1-.47,2.05-1.32,4.02-1.91,6.04-.63,2.18-.95,4.4-1.8,6.52-1.1,2.72-3.3,4.77-4.51,7.44-1.17,2.56-1.96,5.29-2.96,7.93-1.03,2.72-2.25,5.35-3.45,8-.93,2.06-1.81,4.15-2.9,6.13-1.2,2.18-2.69,4.21-4.03,6.3-1.43,2.23-2.62,4.63-4.41,6.62-.61.68-1.38,1.39-2.3,1.63-1.07.28-2.24.21-3.32.04-2.34-.38-4.69-1.23-6.97-1.87-4.15-1.17-8.36-2.26-12.4-3.76-2.84-1.05-5.7-2.24-8.37-3.68-1.9-1.02-3.64-2.22-5.35-3.53-1.25-.95-2.5-2.02-3.87-2.79-.05-.03-.1-.06-.16-.08-3.48.45-5.08,2.34-7.41,4.65-.95.94-1.97,1.81-3.02,2.64-2.46,1.96-5.15,3.76-8.03,5.05-1.39.63-2.88,1.07-4.22,1.81-1.06.59-2.03,1.43-3.04,2.12-1.59,1.09-3.32,2.06-5.06,2.88-2.19,1.04-5.45,1.92-7.33,3.07-2.8,1.71-6.63,5.35-9.12,7.66,1.91.83,3.97,1.41,5.93,2.13,2.07.75,4.06,1.67,6.03,2.65,5.9,2.92,11.51,6.35,16.68,10.43,3.23,2.54,6.28,5.31,9.45,7.91,2.73,2.23,7.79,5.37,8.87,8.84,1.24,3.96-2.35,9.63-4.77,12.64-1.57,1.96-4.02,3-5.8,4.78-4.73,4.73-9.38,9.54-14.13,14.24-6.72,6.63-17.2,15.81-21.59,23.91.66,1.66,1.97,3.06,2.87,4.6-.01.42-.33.67-.59,1,1.27,3.06,5.2,9.61,7.67,11.77,2.55,2.22,10.02,4.6,11.08,7.38.59,1.54.11,3.45-.52,4.91-.84.02-1.66-.03-2.5-.11-5.41-.53-10.91-1.55-15.98-3.55-4.3-1.71-7.5-5.05-11.39-7.42-3.52-2.15-7.36-3.7-10.94-5.75-1.21-.69-3.03-1.62-3.87-2.75-.31-.41-.44-1.07-.32-1.57.21-.86,1.2-1.07,1.65-1.73.48-.71.81-1.82,1.19-2.62.97-2.06,2.78-4.88,4.69-6.15.97-.64,1.78-.6,2.87-.36,1.2-1.34,2.3-2.7,3.35-4.16,2.82-3.99,5.24-8.19,7.72-12.39,1.69-2.86,3.54-5.72,4.94-8.74,1.4-3.04,2.33-6.26,3.67-9.32,2.77-6.3,8-10.87,14.36-13.33-4.31-1.48-8.9-1.7-13.39-2.22-3.56-.42-7.1-.99-10.6-1.74-4.91-1.04-9.69-2.53-14.39-4.25-2.52-.92-5.01-2.05-7.58-2.82l-.2-.06c-2.32,2.59-4.51,5.29-6.84,7.87-6.07,6.71-12.44,13.07-19.33,18.92-2.53,2.14-5.14,4.22-7.84,6.15-1.84,1.31-3.86,2.51-5.57,3.99-2.86,2.48-4.54,6.3-7.67,8.46-2.44,1.68-5.28,1.99-7.96,3.07-3.61,1.45-7.27,3.22-10.74,4.97-4.24,2.14-7.72,5.32-11.68,7.91-12.58,8.25-28.47,16.62-37.26,29.19.63.51,1.44.99,1.56,1.85-.49,1.5-1.26.47-2.08,1.21-1.14,1.03-3.8,5.26-4.8,6.77-3.32,5.01-6.06,8.69-5.54,15.02.19,2.31.62,4.55.55,6.88-1.28,1.89-3.1,3.17-5.05,4.28-1.22-1.59-2.43-3.21-3.34-4.99-1.37-2.66-3.26-10.88-3.53-13.94-.16-1.77-.05-3.62.19-5.37.45-3.31,1.61-7.06,1.33-10.41-.13-1.58-.98-3.02-1.39-4.54-.54-2-1.43-8.66-.85-10.47.17-.22.33-.34.59-.45,2.3-.98,5.43-.68,7.89-1.04,1.06-.16,2.06-.59,3.13-.71.49-.05.99-.03,1.45.17.93.4,1.28,1.14,1.61,2.03,2.38-1,4.63-2.33,6.68-3.89,2.13-1.62,3.98-3.58,5.87-5.47,3.84-3.85,7.62-7.76,10.91-12.1,2.74-3.61,5.15-7.55,8.3-10.83,3.72-3.88,8.44-6.55,13.39-8.54,5.89-2.37,14.11-4.1,18.49-8.92,3.17-3.49,5.49-7.74,7.89-11.76,2.69-4.51,5.41-8.96,8.61-13.13,2.35-3.07,5.12-5.88,7.85-8.62,2.25-2.26,5.09-4.62,6.67-7.41,1.22-2.17,1.01-4.44,1.39-6.79.93-5.82,4.2-12.01,8.07-16.42,3.7-4.21,7.4-4.92,12.02-7.39,3.32-1.78,6.56-3.97,9.39-6.46,6.92-6.1,11.51-14.31,17.41-21.32,2.83-3.36,5.81-6.58,8.86-9.74,2.67-2.77,5.42-5.5,7.88-8.46-3.96-2.09-7.73-3.75-10.95-6.98-2.7-2.7-4.74-5.86-7.93-8.08-.96-.67-1.94-1.2-3.12-1.33-1.71-.18-3.54.19-5.24.36-1.74.17-3.49.25-5.24.27-7.28.09-14.45-1.04-21.74-.47-1.35.11-2.79.18-4.09.59-3.05.99-3.39,3.4-5.24,4.56-1.84,1.15-4.15.7-6.12,1.38-1.76.61-4.46,2.74-5.86,2.94-.45.06-.67-.05-1.01-.32-.29-.66-.14-1.3.1-1.97.88-2.41,3.71-3.97,5.89-5.01-1.23-1.35-2.71-2.68-4.47-3.27-3.2-1.07-10.56,1.49-13.03-.13-.36-.24-.5-.54-.56-.95-.06-.42-.02-.74.24-1.09,1.23-.48,2.71-.52,4.02-.8,2.68-.57,5.13-1.39,7.89-1.59-2.22-.57-10.24-1.56-11.49-2.78-.36-.35-.67-.89-.64-1.42.02-.34.12-.65.39-.87.28-.22.63-.27.97-.28,1.05-.02,2.19.29,3.23.46,1.23.2,2.46.33,3.71.41-1.49-.73-3.61-1.43-4.79-2.59-.31-.31-.59-.72-.54-1.18.05-.46.46-.98.86-1.2.37-.2.68-.22,1.09-.16.83.14,1.77.78,2.59,1.09,1.66.64,3.35,1.19,5.04,1.76-.97-.67-1.93-1.37-2.82-2.15-.67-.59-1.82-1.59-1.78-2.55.01-.41.34-.65.62-.9Z"/>
</svg>